<svg width="91" height="43" viewBox="0 0 91 43" fill="none" xmlns="http://www.w3.org/2000/svg">
<path d="M27.038 6.61787C27.5803 7.96388 27.8902 9.45944 27.8902 11.1046C27.8902 12.0019 27.8127 12.9366 27.6965 13.8714C27.5416 14.8435 27.4254 15.7782 27.2704 16.7503C27.1155 17.7224 26.9605 18.6945 26.8443 19.6293C26.6894 20.6014 26.6507 21.5361 26.6507 22.4708C26.5732 22.4708 26.5344 22.4335 26.5344 22.3587V22.2465C26.4957 22.2839 26.4957 22.2839 26.4957 22.3213C26.4957 22.3587 26.457 22.3587 26.4182 22.3587C26.4182 22.4335 26.4182 22.6204 26.3795 22.8821C26.3408 23.1439 26.302 23.2934 26.2633 23.2934C26.3408 23.4804 26.3795 23.5551 26.3795 23.5551L26.302 23.7047C26.302 23.7795 26.3408 23.8169 26.3795 23.8542C26.3408 23.8542 26.3408 23.8542 26.302 23.8916C26.2633 23.929 26.2633 23.9664 26.2633 24.0412C26.2633 24.0786 26.2633 24.0786 26.2633 24.0786C26.2633 24.0786 26.2633 24.0786 26.2633 24.116C26.302 24.116 26.302 24.116 26.302 24.0786C26.302 24.0412 26.302 24.0038 26.3408 24.0038C26.2633 24.2281 26.2245 24.4899 26.2245 24.789C26.2245 25.0881 26.1858 25.3498 26.1858 25.6115C26.1858 25.2376 26.1083 25.0133 25.9921 24.9011L25.9147 24.9385C25.9147 24.9759 25.9147 25.0133 25.9534 25.0507C25.9921 25.1255 25.9921 25.1629 25.9921 25.2003H25.9534C25.9921 25.2376 26.0309 25.275 26.0309 25.3124L25.8759 25.2003C25.8759 25.3498 25.8759 25.4246 25.8372 25.4246C25.8372 25.3872 25.8372 25.3498 25.7984 25.2376C25.7597 25.1255 25.6822 25.0881 25.6048 25.0881C25.6435 25.0507 25.6822 25.0133 25.6822 24.9385C25.6822 24.8638 25.6435 24.8264 25.5273 24.789C25.5273 24.8264 25.5273 24.9011 25.566 24.9759C25.6048 25.0507 25.6048 25.1629 25.6048 25.275C25.566 25.2376 25.5273 25.1629 25.4886 25.1255C25.4498 25.0881 25.4111 25.0133 25.3723 24.9011C25.3723 24.9385 25.3723 24.9385 25.3723 24.9385V24.9759C25.3723 25.0881 25.3723 25.1629 25.3723 25.1629C25.3723 25.1629 25.3336 25.0881 25.2949 24.9385C25.2174 24.9759 25.1787 25.0133 25.1787 25.0881C25.1787 25.1255 25.1787 25.1629 25.1787 25.2376C25.1787 25.275 25.1787 25.3498 25.1787 25.3872C25.1399 25.3872 25.1399 25.3872 25.1399 25.3498V25.3124C25.1012 25.3498 25.1012 25.4246 25.1399 25.462C25.1787 25.5368 25.1787 25.5741 25.1787 25.6115C25.1012 25.4994 25.0625 25.3498 24.985 25.1255C24.9462 25.0507 24.9463 24.9385 24.9075 24.8264C24.9075 24.8638 24.9075 24.8638 24.8688 24.8264C24.83 24.8264 24.83 24.8264 24.7913 24.8264C24.83 24.9385 24.8688 25.0133 24.83 25.0507C24.83 25.0881 24.7526 25.0507 24.6364 24.9385C24.6364 25.0133 24.6364 25.0507 24.6751 25.0881C24.7138 25.1255 24.7138 25.1629 24.7138 25.2376C24.6751 25.2003 24.6751 25.1629 24.6364 25.1255C24.5976 25.0881 24.5976 25.0507 24.5976 24.9385C24.5589 24.9385 24.5589 24.9385 24.5976 24.9759C24.5976 25.0133 24.5976 25.0133 24.5976 25.0133C24.5201 24.9385 24.4814 24.9011 24.4814 24.8264C24.4814 24.789 24.4427 24.7516 24.4427 24.7516L24.3652 24.8264C24.3265 24.8264 24.3265 24.789 24.3265 24.7516C24.2877 24.8264 24.2877 24.9385 24.2877 25.0133C24.2877 25.0881 24.2877 25.1629 24.2877 25.2003C24.249 25.1255 24.249 25.0507 24.2103 24.9759C24.1715 24.9385 24.1328 24.8638 24.094 24.7516C24.094 24.8264 24.1328 24.9385 24.1715 25.0133C24.2103 25.0881 24.249 25.2003 24.249 25.3124C24.1715 25.275 24.094 25.2376 24.094 25.1629L24.0553 25.4246C24.0553 25.462 24.0553 25.4994 24.094 25.4994C24.1328 25.4994 24.1328 25.5368 24.1328 25.5368C24.1328 25.5741 24.1328 25.5741 24.094 25.5741C23.9778 25.5368 23.9004 25.4246 23.8229 25.3124C23.7454 25.1629 23.7067 25.0507 23.7067 24.9385C23.7067 25.0133 23.7067 25.0507 23.7067 25.1255C23.7067 25.2003 23.7067 25.2376 23.7067 25.275C23.5905 25.275 23.5517 25.3872 23.5517 25.6115C23.5905 25.8359 23.5905 25.9854 23.6679 26.0976C23.6292 26.0228 23.5517 25.948 23.513 25.8733C23.4355 25.7985 23.3968 25.7985 23.3968 25.8733C23.3968 25.9106 23.3968 25.9106 23.3968 25.9106C23.3968 25.9106 23.3968 25.9106 23.3968 25.948C23.1256 25.6863 22.9707 25.462 22.932 25.2003C22.8545 24.9385 22.8545 24.6768 22.8545 24.3777C22.8545 24.0038 22.8545 23.6673 22.8932 23.3308C22.932 23.0317 22.9707 22.6204 22.9707 22.097C22.8932 22.1717 22.8545 22.2091 22.8932 22.2839C22.8932 22.3587 22.8932 22.3961 22.8932 22.5082C22.8545 22.4708 22.8545 22.4708 22.8157 22.5082C22.777 22.5082 22.777 22.5082 22.777 22.5082C22.777 22.2091 22.8157 21.7978 22.8545 21.3118C22.8932 20.7883 22.9707 20.2649 23.0094 19.7414C23.0869 19.218 23.1644 18.7319 23.2418 18.2833C23.3193 17.8346 23.4355 17.5355 23.513 17.3859C23.4743 17.5729 23.4355 17.8346 23.3968 18.0589C23.3581 18.3207 23.3193 18.545 23.2806 18.7693C23.3193 18.7693 23.3193 18.7693 23.3193 18.7319C23.2806 18.6945 23.3193 18.6945 23.3581 18.6945C23.3581 18.7693 23.3581 18.8067 23.3581 18.8441C23.3581 18.8815 23.3581 18.9189 23.3581 18.9563V18.9937C23.3581 19.0311 23.3581 19.0311 23.3581 19.0684C23.3581 19.1058 23.3581 19.1058 23.3581 19.1432V19.2554C23.3968 19.1806 23.4355 19.0311 23.513 18.8441C23.5517 18.6198 23.5905 18.4328 23.6292 18.2459C23.6292 18.2833 23.6292 18.2833 23.6292 18.2833C23.6292 18.2833 23.6292 18.2833 23.6292 18.3207L23.5905 18.358C23.5905 18.2833 23.5905 18.2085 23.6292 18.0963C23.6679 17.9842 23.6679 17.872 23.7067 17.7598C23.7454 17.6477 23.7454 17.5355 23.7842 17.4607C23.8229 17.3859 23.8229 17.3485 23.7842 17.3485V17.2364C23.7842 17.1242 23.7842 16.9747 23.7842 16.8251C23.7842 16.6381 23.8229 16.4886 23.8229 16.339C23.8616 16.1521 23.8616 15.9651 23.9391 15.8156C23.9391 15.7408 23.9391 15.666 23.9778 15.5913C24.0166 15.5165 24.0166 15.4417 24.0553 15.3669C24.1715 14.7313 24.249 14.32 24.2877 14.0957C24.3265 13.8714 24.3652 13.7218 24.3652 13.647C24.3652 13.5722 24.4039 13.5349 24.4039 13.4601C24.4039 13.4227 24.4427 13.2357 24.4814 12.9366C24.4039 13.0862 24.3652 13.1984 24.3652 13.2731C24.3652 13.3479 24.2877 13.4975 24.2103 13.647C24.249 13.1236 24.3265 12.6001 24.4427 12.1515C24.5589 11.6654 24.6364 11.2541 24.6751 10.8802C24.6364 10.8802 24.6364 10.8428 24.6364 10.7681C24.6364 10.6933 24.6364 10.6559 24.6364 10.5811V10.0203C24.6364 9.9455 24.6364 9.83333 24.6364 9.79594C24.6364 9.72117 24.6364 9.64639 24.6364 9.609V9.34727L24.5976 9.30989C24.5589 9.34727 24.5201 9.42205 24.5201 9.49683C24.5201 9.57161 24.4814 9.68378 24.4814 9.72117C24.5201 9.68378 24.5589 9.64639 24.5201 9.64639C24.5201 9.64639 24.5201 9.609 24.5589 9.57161V9.79594C24.5589 9.98289 24.5201 10.2072 24.4814 10.4689C24.4427 10.7307 24.3652 10.955 24.2877 11.142C24.2877 10.955 24.2877 10.7681 24.2877 10.5437C24.2877 10.3194 24.3265 10.1324 24.4039 9.98289C24.4039 9.9455 24.3652 9.9455 24.3265 9.87072C24.3652 9.87072 24.3652 9.83333 24.3652 9.79594C24.2877 9.30989 24.2877 8.82383 24.2877 8.26299C24.3265 7.70215 24.2103 7.2161 23.9778 6.76743C23.5905 6.95437 23.1644 7.36565 22.6608 8.00127C22.196 8.63688 21.7311 9.30989 21.2663 10.0577C20.8402 10.8054 20.4141 11.5532 20.0655 12.301C19.7168 13.0488 19.4457 13.647 19.2907 14.0957C19.252 14.0583 19.2133 14.0583 19.1745 14.0583C19.0971 14.0583 19.0583 14.0583 19.0583 14.0209C19.0583 14.0583 19.0583 14.0957 19.0971 14.1331C19.1358 14.1705 19.1358 14.2452 19.1358 14.32V14.3574C18.9808 14.8061 18.8259 15.4043 18.5935 16.1895C18.3998 16.9373 18.1674 17.7224 17.9737 18.545C17.78 19.3302 17.5863 20.0779 17.4314 20.751C17.2764 21.424 17.1602 21.91 17.1215 22.2091V22.2839H17.1602C17.1215 22.3213 17.0828 22.3587 17.044 22.3961C16.9665 22.4335 16.9278 22.5082 16.8891 22.6204C16.8116 22.5456 16.8116 22.5082 16.8116 22.5082C16.8116 22.583 16.8116 22.6578 16.8503 22.6578C16.7729 22.6952 16.6954 22.7326 16.6954 22.77C16.6567 22.77 16.6567 22.7326 16.6179 22.6578C16.5404 22.6952 16.5017 22.7326 16.463 22.8074C16.4242 22.8447 16.3855 22.8821 16.3468 22.8821C16.308 22.6952 16.2306 22.6204 16.1531 22.6204C16.1143 22.6952 16.0756 22.7326 16.0369 22.77C15.9981 22.8074 15.9594 22.8821 15.9594 22.9569C15.9594 22.9195 15.9594 22.9195 15.9207 22.9195C15.8819 22.9195 15.8819 22.9195 15.8819 22.8821C15.8045 22.9569 15.7657 22.9943 15.7657 23.0317C15.7657 23.1065 15.7657 23.1439 15.8045 23.1812C15.6882 23.2186 15.6108 23.256 15.572 23.3682C15.4558 23.3682 15.4171 23.3308 15.4171 23.2934C15.4171 23.256 15.4171 23.1812 15.3784 23.0691C15.2234 23.2186 15.1459 23.2934 15.1459 23.3308C15.1459 23.3682 15.0297 23.3682 14.836 23.3682C14.7198 23.3682 14.6424 23.3308 14.6036 23.2186C14.5262 23.2186 14.4099 23.2186 14.2163 23.256C14.0226 23.2934 13.7902 23.2934 13.5577 23.3308C13.3253 23.3682 13.0929 23.4056 12.8605 23.4056C12.6281 23.443 12.4731 23.443 12.3957 23.443C12.2794 23.443 12.202 23.4056 12.1632 23.3682C12.1245 23.3682 12.1245 23.3682 12.1245 23.4056C12.1245 23.443 12.0858 23.443 12.047 23.443C12.0083 23.443 11.9308 23.443 11.8533 23.443C11.7759 23.443 11.6984 23.4056 11.6597 23.3682C11.6597 23.3308 11.6597 23.2934 11.6984 23.256C11.7371 23.2186 11.7371 23.2186 11.7371 23.1812C11.7371 23.1065 11.6984 23.0691 11.6597 23.0317C11.5822 22.9943 11.5822 22.9569 11.5822 22.9569C11.6597 22.9943 11.6984 22.9569 11.6597 22.8821C11.6597 22.8074 11.6597 22.7326 11.6984 22.6952C11.7371 22.6952 11.7371 22.6952 11.7371 22.7326C11.6984 22.77 11.7371 22.77 11.7759 22.77C11.7759 22.6952 11.7759 22.6204 11.7759 22.5456C11.7759 22.4708 11.7759 22.4335 11.7759 22.3961C11.7759 22.1717 11.8146 21.7231 11.8533 21.0501C11.8921 20.3771 11.9696 19.5919 12.0858 18.6572C12.1632 17.7224 12.2794 16.7503 12.3569 15.666C12.4344 14.6191 12.5506 13.5722 12.6281 12.5627C12.7055 11.5532 12.783 10.6185 12.8605 9.75856C12.8992 8.89861 12.938 8.2256 12.938 7.73954C12.938 7.02915 12.8992 6.35615 12.8218 5.72053C12.7443 5.08492 12.5893 4.4493 12.3182 3.88847C11.6984 4.67364 11.1561 5.4962 10.6912 6.39354C10.2264 7.29087 9.76158 8.15082 9.37421 9.01077C8.32833 11.2541 7.43739 13.6096 6.74014 16.0399C6.00414 18.4702 5.50057 21.1622 5.19068 24.0786C5.19068 24.3029 5.19068 24.4899 5.22942 24.602C5.26815 24.7516 5.26815 24.9011 5.26815 25.1255C5.26815 25.3872 5.22942 25.5741 5.11321 25.6863C4.997 25.7985 4.88079 25.8733 4.76458 25.8733C4.64837 25.9106 4.53216 25.948 4.41595 25.948C4.29974 25.9854 4.26101 26.0228 4.22227 26.135C4.22227 26.1724 4.22227 26.1724 4.22227 26.2098C4.22227 26.2471 4.22227 26.2471 4.22227 26.2845C4.1448 26.2471 4.10606 26.2098 4.06732 26.1724C4.02859 26.135 3.98985 26.135 3.91238 26.135C3.8349 26.1724 3.7187 26.2098 3.60249 26.2471C3.48628 26.2845 3.44754 26.2845 3.4088 26.3219C3.37007 26.3219 3.21512 26.3219 2.94397 26.2845C2.67281 26.2471 2.51787 26.2471 2.44039 26.2471C2.32418 26.2471 2.24671 26.2845 2.24671 26.3967C2.24671 26.5089 2.16924 26.5463 2.05303 26.5463C2.01429 26.5463 1.89808 26.5089 1.78187 26.4715C1.74314 26.5089 1.7044 26.5089 1.7044 26.5463C1.7044 26.5836 1.66567 26.5836 1.62693 26.5836C1.58819 26.5836 1.54946 26.5836 1.51072 26.5463C1.47198 26.5836 1.35577 26.6584 1.20083 26.7332C1.04588 26.808 0.852201 26.8828 0.658519 26.8828C0.581046 26.8828 0.54231 26.808 0.503573 26.621C0.464837 26.4341 0.426101 26.2471 0.387364 25.9854C0.348628 25.7237 0.348628 25.462 0.348628 25.1629C0.348628 24.8638 0.348628 24.602 0.348628 24.3403C0.348628 20.5266 0.271155 16.7129 0.0774728 12.9366C0.0774728 9.30989 0 5.42142 0 1.42079C0 1.3834 0 1.30862 0.0387364 1.23384C0.0387364 1.19645 0.116209 1.12167 0.193682 1.04689C0.193682 1.00951 0.309891 0.972117 0.503573 0.859949C0.697255 0.747782 0.929674 0.598226 1.20083 0.486058C1.51072 0.373891 1.78187 0.261724 2.09177 0.149556C2.36292 0.0373891 2.63408 0 2.82776 0C3.21512 0 3.52501 0.112167 3.75743 0.299113C3.98985 0.486058 4.18353 0.785171 4.29974 1.12167C4.41595 1.45817 4.49342 1.83207 4.53216 2.28074C4.5709 2.69202 4.60963 3.14068 4.60963 3.55196C4.60963 4.07541 4.5709 4.7858 4.53216 5.68314C4.45469 6.54309 4.41595 7.44043 4.33848 8.33777C4.26101 9.23511 4.18353 10.0577 4.06732 10.8428C3.98985 11.5906 3.91238 12.1515 3.87364 12.488C4.37721 11.2167 4.88079 9.98289 5.4231 8.71166C5.92667 7.44043 6.54645 6.31876 7.20497 5.30925C7.90223 4.29975 8.71569 3.47719 9.64537 2.84157C10.575 2.16857 11.7759 1.86945 13.1704 1.86945C13.2866 1.86945 13.4028 1.86945 13.519 1.86945C13.6352 1.86945 13.7514 1.86945 13.8676 1.86945H13.8289C13.8289 1.83207 13.8289 1.83207 13.8676 1.83207C13.9451 1.90684 14.0613 1.94423 14.2163 1.94423C14.3712 1.94423 14.4874 1.98162 14.6036 2.09379L14.6424 2.0564C14.6811 2.0564 14.7198 2.09379 14.836 2.20596C14.836 2.16857 14.7973 2.16857 14.7198 2.16857C14.7586 2.20596 14.7973 2.24335 14.7973 2.20596C14.7973 2.20596 14.7973 2.20596 14.7973 2.24335C14.7973 2.28074 14.7586 2.31812 14.7198 2.31812C14.6811 2.31812 14.6424 2.31812 14.6036 2.28074C14.5649 2.24335 14.5262 2.20596 14.4874 2.20596C14.5262 2.24335 14.5649 2.28074 14.5649 2.31812C14.5649 2.35551 14.6036 2.3929 14.7198 2.46768C14.7198 2.43029 14.7198 2.43029 14.7586 2.43029C14.7973 2.43029 14.7973 2.3929 14.7973 2.3929C14.836 2.3929 14.836 2.3929 14.836 2.43029C14.836 2.46768 14.836 2.46768 14.7973 2.50507C14.836 2.46768 14.836 2.46768 14.9135 2.46768C14.9523 2.46768 15.0685 2.57985 15.2621 2.80418C15.4558 3.02852 15.572 3.14068 15.6882 3.21546C15.6882 3.14068 15.727 3.1033 15.7657 3.02852C15.8045 3.14068 15.8432 3.29024 15.8819 3.4398C15.9207 3.58935 15.9981 3.7763 16.1143 3.92586C16.1918 4.07541 16.308 4.26236 16.3855 4.37452C16.463 4.52408 16.5792 4.59886 16.6567 4.59886C16.6567 4.56147 16.6179 4.52408 16.5792 4.52408C16.5404 4.52408 16.5017 4.48669 16.5017 4.4493C16.5404 4.4493 16.5404 4.4493 16.5404 4.41191C16.4242 4.26236 16.308 4.15019 16.2306 3.96324C16.0369 3.66413 15.9207 3.36502 15.9207 3.1033C16.6954 4.1128 17.2377 5.23447 17.5476 6.43093C17.8575 7.62738 18.0512 8.89861 18.0899 10.2446C18.4773 9.72117 18.8646 9.16033 19.3295 8.52471C19.7943 7.8891 20.2979 7.29087 20.8402 6.73004C21.3825 6.1692 22.0023 5.72053 22.6608 5.34664C23.3193 4.97275 24.0166 4.7858 24.7913 4.7858C25.0625 4.7858 25.3336 4.86058 25.566 5.01014C25.7985 5.1597 25.9921 5.34664 26.1858 5.53359C26.3795 5.75792 26.5344 5.98226 26.6507 6.20659C26.8443 6.31876 26.9605 6.5057 27.038 6.61787ZM1.04588 13.9461V13.8714C1.04588 13.834 1.04588 13.834 1.08462 13.7966C1.00715 13.7966 0.96841 13.834 0.96841 13.8714C0.96841 13.9087 1.00715 13.9461 1.04588 13.9461ZM1.54946 19.8536C1.58819 19.9284 1.58819 19.9658 1.58819 20.0406C1.58819 20.0779 1.54946 20.1901 1.54946 20.3023C1.54946 20.4518 1.54946 20.5266 1.58819 20.5266L1.7044 19.4797C1.74314 19.4423 1.78187 19.4423 1.82061 19.3676C1.85935 19.2928 1.85935 19.218 1.82061 19.218C1.89808 19.0311 1.97556 18.9563 1.97556 18.9563C1.97556 18.9563 1.97556 18.9189 1.97556 18.8815C1.97556 18.8067 1.97556 18.6945 1.97556 18.5076C1.97556 18.3207 2.01429 18.1337 2.01429 17.9468C2.05303 17.7598 2.05303 17.5729 2.05303 17.3859C2.05303 17.199 2.05303 17.1242 2.05303 17.0494C2.05303 17.012 2.05303 17.012 2.05303 17.0868C2.05303 17.1616 2.01429 17.199 2.01429 17.199V17.199C1.97556 17.199 1.97556 17.199 1.97556 17.1616V17.0494C1.97556 17.012 1.97556 17.012 2.01429 17.012C2.01429 16.9373 2.05303 16.8625 2.09177 16.8251C2.05303 16.7877 2.01429 16.7503 2.01429 16.6755C2.01429 16.6381 2.01429 16.6381 2.05303 16.5634C2.09177 16.526 2.09177 16.4886 2.05303 16.4512L1.97556 16.526V16.6755C1.97556 16.7877 1.97556 16.8251 1.97556 16.7877C1.97556 16.7503 1.93682 16.7129 1.93682 16.6381C1.93682 16.6755 1.93682 16.7129 1.93682 16.7503C1.93682 16.7877 1.93682 16.7877 1.93682 16.8251C1.93682 16.9747 1.93682 17.1242 1.93682 17.3112C1.93682 17.4981 1.89808 17.6477 1.89808 17.8346C1.89808 17.9842 1.85935 18.1337 1.85935 18.2459C1.85935 18.358 1.85935 18.3954 1.85935 18.3954V17.4981C1.85935 17.4607 1.85935 17.4233 1.85935 17.3859C1.85935 17.3485 1.85935 17.3485 1.85935 17.3112C1.85935 17.4607 1.85935 17.685 1.85935 17.9468C1.85935 18.2085 1.85935 18.3954 1.85935 18.5076C1.82061 18.5076 1.82061 18.5076 1.82061 18.4702C1.82061 18.358 1.82061 18.2459 1.82061 18.1711C1.82061 18.0963 1.82061 17.9842 1.82061 17.872L1.74314 17.9842C1.78187 17.8346 1.78187 17.6477 1.78187 17.4607C1.78187 17.2738 1.78187 17.0868 1.78187 16.8999C1.78187 16.7877 1.78187 16.6381 1.78187 16.3764C1.78187 16.1521 1.74314 15.9278 1.74314 15.7034C1.74314 15.4791 1.7044 15.2921 1.7044 15.1426C1.66567 14.993 1.66567 14.8809 1.62693 14.8809C1.62693 14.9183 1.58819 14.993 1.54946 15.1052C1.54946 15.1426 1.54946 15.18 1.54946 15.2548C1.54946 15.2921 1.54946 15.3295 1.58819 15.4043C1.58819 15.2921 1.58819 15.2174 1.62693 15.2174C1.66567 15.2548 1.66567 15.2921 1.66567 15.3295C1.66567 15.5165 1.66567 15.666 1.62693 15.8156C1.58819 15.9651 1.58819 16.1147 1.58819 16.339C1.62693 16.6008 1.62693 16.7129 1.58819 16.6755C1.58819 16.6381 1.58819 16.6755 1.58819 16.7129C1.58819 16.7503 1.58819 16.7877 1.54946 16.8251C1.51072 16.8625 1.51072 16.7877 1.51072 16.6755C1.51072 16.6008 1.51072 16.4886 1.51072 16.3764C1.51072 16.2643 1.51072 16.0025 1.51072 15.5539L1.39451 16.2643C1.35577 16.2269 1.35577 16.1521 1.35577 16.0399C1.35577 15.9278 1.35577 15.8156 1.35577 15.7034C1.35577 15.5913 1.35577 15.4791 1.35577 15.3669C1.31704 15.3669 1.2783 15.3295 1.23957 15.2174C1.20083 15.1052 1.20083 15.0678 1.20083 15.1426C1.20083 15.18 1.20083 15.2548 1.16209 15.3669C1.12336 15.4791 1.12336 15.5539 1.16209 15.5913C1.20083 15.6286 1.20083 15.5913 1.20083 15.5913C1.20083 15.5539 1.23957 15.5539 1.23957 15.5539L1.16209 15.7034V15.7408C1.20083 15.7408 1.20083 15.7782 1.16209 15.8156C1.12336 15.853 1.12336 15.8904 1.12336 15.9651C1.12336 16.0773 1.12336 16.1147 1.12336 16.0773C1.12336 16.0399 1.12336 16.1147 1.12336 16.2643C1.12336 16.3016 1.12336 16.339 1.16209 16.3764C1.16209 16.4138 1.20083 16.4512 1.20083 16.4512C1.16209 16.4512 1.16209 16.4512 1.12336 16.4138C1.12336 16.3764 1.08462 16.3764 1.08462 16.3764V16.526C1.12336 16.526 1.12336 16.526 1.16209 16.4886V16.526C1.12336 16.5634 1.08462 16.6381 1.08462 16.7503C1.08462 16.8625 1.08462 16.9747 1.08462 17.012C1.08462 17.199 1.08462 17.3859 1.08462 17.4981C1.08462 17.6103 1.08462 17.7224 1.08462 17.7972C1.08462 17.872 1.08462 17.9842 1.08462 18.1337C1.08462 18.2459 1.08462 18.4328 1.12336 18.6572C1.08462 18.8441 1.08462 18.9937 1.12336 19.0311C1.12336 19.0684 1.16209 19.1806 1.16209 19.3302C1.16209 19.4423 1.23957 19.5171 1.43325 19.5545C1.43325 19.6667 1.43325 19.7414 1.39451 19.7414C1.35577 19.7414 1.39451 19.8162 1.47198 19.891C1.47198 19.8536 1.51072 19.8536 1.54946 19.8536ZM1.16209 14.1331C1.16209 14.2079 1.16209 14.2452 1.12336 14.2826C1.16209 14.32 1.20083 14.3574 1.20083 14.4696V14.5444C1.20083 14.507 1.20083 14.507 1.23957 14.507C1.2783 14.507 1.2783 14.4696 1.2783 14.4322C1.2783 14.2452 1.23957 14.0957 1.16209 14.0209V14.1331V14.1331ZM1.20083 15.0304C1.20083 14.9556 1.20083 14.8809 1.20083 14.8061C1.20083 14.7313 1.20083 14.6565 1.16209 14.6191C1.16209 14.6565 1.16209 14.7313 1.12336 14.8435C1.12336 14.9556 1.16209 15.0304 1.20083 15.0304ZM1.20083 17.8346C1.20083 17.9842 1.20083 18.0963 1.20083 18.2085C1.20083 18.3207 1.20083 18.4328 1.20083 18.5824C1.20083 18.545 1.20083 18.5076 1.20083 18.4702C1.20083 18.4328 1.20083 18.3954 1.20083 18.358C1.20083 18.2833 1.20083 18.1711 1.20083 18.0589C1.16209 17.9468 1.16209 17.872 1.20083 17.8346ZM1.20083 16.6381C1.23957 16.6755 1.23957 16.7503 1.23957 16.8251C1.23957 16.8999 1.23957 17.012 1.23957 17.0494C1.23957 17.1242 1.23957 17.199 1.23957 17.2738C1.23957 17.3485 1.23957 17.3859 1.20083 17.4981C1.16209 17.5355 1.16209 17.4981 1.16209 17.3485C1.16209 17.199 1.16209 17.0868 1.16209 16.8999C1.16209 16.8625 1.16209 16.7877 1.16209 16.6755C1.16209 16.5634 1.20083 16.5634 1.20083 16.6381ZM1.23957 19.3676C1.20083 19.3676 1.16209 19.3302 1.16209 19.218C1.16209 19.1806 1.16209 19.1432 1.16209 19.1058C1.16209 19.0684 1.16209 19.0684 1.16209 19.0311C1.23957 19.0311 1.23957 19.0684 1.23957 19.0684V19.3676ZM1.2783 13.4975C1.23957 13.4975 1.20083 13.5349 1.20083 13.5722C1.20083 13.6096 1.23957 13.647 1.2783 13.647V13.4975ZM1.31704 13.9461C1.31704 13.9461 1.2783 13.9087 1.31704 13.9461L1.2783 13.7966C1.23957 13.834 1.23957 13.8714 1.23957 13.9087C1.23957 13.9461 1.2783 13.9835 1.31704 13.9461ZM1.31704 14.4696C1.2783 14.5817 1.23957 14.7313 1.23957 14.9183C1.23957 15.1052 1.23957 15.2174 1.2783 15.3295C1.31704 15.18 1.31704 15.0304 1.2783 14.9183C1.2783 14.8061 1.31704 14.6565 1.31704 14.4696ZM1.35577 17.7598C1.35577 17.8346 1.35577 17.9094 1.35577 17.9842C1.35577 18.0589 1.35577 18.1711 1.35577 18.2833C1.31704 18.2085 1.2783 18.0963 1.2783 18.0589C1.31704 17.9468 1.31704 17.8346 1.35577 17.7598ZM1.35577 18.6945C1.39451 18.7319 1.39451 18.7319 1.39451 18.7693C1.39451 18.8067 1.39451 18.8441 1.43325 18.9189C1.47198 18.9563 1.47198 18.9937 1.43325 19.0311L1.39451 19.1806C1.35577 19.1432 1.35577 18.9937 1.35577 18.6945ZM1.51072 17.3112C1.47198 17.3112 1.43325 17.3112 1.43325 17.2738C1.43325 17.2364 1.43325 17.2364 1.43325 17.199C1.43325 17.1616 1.43325 17.1242 1.43325 17.1242C1.43325 17.1616 1.43325 17.1616 1.47198 17.1616C1.47198 17.199 1.47198 17.199 1.47198 17.199C1.47198 17.199 1.47198 17.2364 1.47198 17.2738L1.51072 17.3112ZM1.97556 17.7598C1.97556 17.9094 1.97556 18.0963 1.93682 18.2833C1.89808 18.4702 1.89808 18.6572 1.85935 18.8441C1.85935 18.6946 1.85935 18.5076 1.85935 18.2833C1.89808 18.0589 1.89808 17.9094 1.97556 17.7598ZM2.01429 16.5634C2.05303 16.526 2.05303 16.4886 2.05303 16.3764C2.01429 16.4138 1.97556 16.4512 1.97556 16.526L2.01429 16.5634ZM2.20798 17.7598C2.28545 17.6477 2.36292 17.4981 2.40166 17.3112C2.44039 17.1242 2.44039 16.9373 2.44039 16.7503C2.40166 16.7503 2.36292 16.6008 2.36292 16.3016V14.993C2.36292 15.0304 2.36292 14.993 2.36292 14.993C2.36292 14.993 2.32418 14.9556 2.28545 14.9556C2.24671 15.4043 2.24671 15.8156 2.20798 16.1895C2.16924 16.4886 2.16924 16.8251 2.16924 17.1242C2.20798 17.4607 2.20798 17.6477 2.20798 17.7598ZM2.28545 17.8346L2.24671 17.9094C2.24671 17.9468 2.24671 17.9468 2.24671 17.9842C2.24671 18.0215 2.24671 18.0215 2.24671 18.0589C2.24671 18.0963 2.24671 18.0963 2.28545 18.0963C2.24671 18.1337 2.20798 18.2085 2.20798 18.2833C2.20798 18.358 2.20798 18.4328 2.24671 18.4702C2.24671 18.358 2.24671 18.2833 2.24671 18.2833C2.24671 18.2459 2.24671 18.2459 2.24671 18.1711C2.24671 18.2085 2.24671 18.2085 2.28545 18.2085V17.8346V17.8346ZM2.28545 17.0868C2.32418 17.0868 2.32418 17.0868 2.32418 17.1242C2.28545 17.1616 2.28545 17.199 2.32418 17.199C2.28545 17.2364 2.28545 17.2364 2.24671 17.2364C2.20798 17.2364 2.20798 17.2364 2.20798 17.199C2.24671 17.1616 2.24671 17.1242 2.28545 17.0868ZM2.36292 17.012C2.32418 17.012 2.28545 16.9747 2.28545 16.9373C2.28545 16.8999 2.28545 16.8625 2.28545 16.8251C2.32418 16.8625 2.36292 16.8999 2.36292 17.012ZM2.40166 16.6008C2.47913 16.4512 2.51787 16.2643 2.47913 16.0025C2.47913 15.7782 2.47913 15.666 2.47913 15.7408C2.47913 15.8904 2.47913 16.0025 2.44039 16.1521C2.40166 16.3016 2.40166 16.4512 2.40166 16.6008ZM14.2163 2.01901C14.255 2.0564 14.255 2.09379 14.2937 2.09379C14.3325 2.09379 14.3325 2.13118 14.4099 2.16857C14.3712 2.01901 14.255 1.98162 14.0613 1.98162C14.0613 2.01901 14.1001 2.01901 14.2163 2.01901ZM14.7973 2.54246C14.7973 2.61724 14.836 2.65463 14.9135 2.65463V2.57985C14.9135 2.61724 14.8748 2.57985 14.7973 2.54246ZM14.9523 2.69202V2.76679C14.991 2.76679 14.991 2.76679 15.0297 2.7294L14.9523 2.69202C14.9523 2.7294 14.9523 2.7294 14.9523 2.69202ZM15.1072 2.69202C15.1072 2.76679 15.1459 2.84157 15.2621 2.84157C15.2234 2.7294 15.1847 2.69202 15.1072 2.69202ZM15.1459 2.31812V2.24335L15.1847 2.20596C15.2234 2.20596 15.2234 2.20596 15.2234 2.24335C15.2234 2.28074 15.2621 2.28074 15.3396 2.28074L15.3009 2.31812C15.3009 2.35551 15.3009 2.3929 15.3009 2.3929C15.3009 2.3929 15.3396 2.43029 15.3396 2.46768C15.3009 2.46768 15.2621 2.43029 15.1847 2.35551C15.1847 2.3929 15.1459 2.3929 15.1459 2.31812ZM15.4946 2.69202L15.4171 2.65463C15.3784 2.65463 15.3784 2.65463 15.3784 2.61724C15.3784 2.57985 15.3784 2.57985 15.3784 2.57985C15.3784 2.57985 15.3784 2.57985 15.3784 2.54246C15.3784 2.57985 15.3784 2.57985 15.4171 2.57985C15.4946 2.57985 15.4946 2.61724 15.4946 2.69202ZM22.9707 7.36565C23.0869 7.25349 23.2418 7.14132 23.3968 7.02915C23.5517 6.91698 23.7067 6.80482 23.7454 6.69265C23.5905 6.69265 23.513 6.69265 23.4743 6.73004C23.4743 6.76743 23.4743 6.73004 23.513 6.58048C23.513 6.54309 23.4743 6.58048 23.3581 6.69265C23.2806 6.76743 23.2031 6.73004 23.2031 6.54309C23.2031 6.5057 23.2031 6.5057 23.2031 6.5057C23.2031 6.5057 23.2031 6.46831 23.2031 6.43093C23.1256 6.46831 23.0482 6.54309 22.932 6.65526C22.8157 6.76743 22.7383 6.76743 22.6995 6.69265L22.5446 6.76743C22.4671 6.80482 22.4284 6.87959 22.4284 6.95437H22.4671C22.4671 6.99176 22.3896 7.06654 22.2347 7.17871C22.0798 7.29087 21.9635 7.40304 21.9248 7.51521V7.47782C21.5374 7.81432 21.1888 8.2256 20.8402 8.74905C20.4916 9.2725 20.2591 9.75855 20.1429 10.2072C20.2204 10.1698 20.2591 10.1324 20.2979 10.0577C20.3366 10.0203 20.3754 9.98289 20.3754 9.98289C20.4141 9.98289 20.4141 9.98289 20.4141 10.0203C20.4141 10.0577 20.4141 10.0951 20.4528 10.1698C20.4141 10.1698 20.3754 10.2446 20.3366 10.3568C20.2979 10.5063 20.2204 10.5811 20.1042 10.6559C20.1429 10.6933 20.1817 10.7307 20.1817 10.6933C20.1817 10.7307 20.1429 10.8428 20.0267 10.9924C19.9105 11.142 19.7943 11.3289 19.6781 11.5532C19.5619 11.7776 19.4457 12.0393 19.3295 12.301C19.2133 12.5627 19.1358 12.8245 19.1358 13.1236C19.2133 13.0488 19.252 12.974 19.2907 12.9366C19.3295 12.8992 19.3295 12.8992 19.4069 12.8245C19.3682 13.0114 19.2907 13.1984 19.252 13.3479C19.1745 13.5349 19.1745 13.647 19.1745 13.7218C19.4844 12.974 19.7168 12.4506 19.8718 12.1888C20.0267 11.9271 20.0655 11.7776 20.0655 11.7402C20.0655 11.5906 20.1429 11.4411 20.2979 11.2167C20.4528 11.0298 20.5303 10.8428 20.5303 10.6559C20.6852 10.3942 20.8789 10.1324 21.0726 9.79594C21.2663 9.45944 21.46 9.16033 21.6924 8.82383C21.8861 8.52471 22.1185 8.2256 22.3896 7.92649C22.6221 7.66477 22.8932 7.40304 23.1256 7.25349C23.0869 7.25349 23.0482 7.25349 22.9707 7.25349C23.0482 7.36565 23.0094 7.36565 22.9707 7.36565ZM19.9105 12.0393C19.8718 12.0019 19.8718 11.9271 19.9105 11.8523C19.9493 11.7776 19.988 11.7028 20.0655 11.6654C20.0267 11.7402 20.0267 11.815 19.988 11.8523C19.9105 11.9645 19.9105 12.0019 19.9105 12.0393ZM20.6078 8.26299C20.569 8.33777 20.4916 8.41255 20.4528 8.48733C20.3754 8.5621 20.3754 8.63688 20.3754 8.71166C20.4141 8.63688 20.4528 8.5621 20.4916 8.48733C20.5303 8.37516 20.569 8.30038 20.6078 8.26299ZM20.8402 7.92649C20.8402 7.96388 20.8402 7.96388 20.8015 8.00127C20.7627 8.03866 20.7627 8.03866 20.7627 8.07605C20.7627 8.11343 20.7627 8.11343 20.8015 8.11343C20.8015 8.07605 20.8015 8.07605 20.8402 8.03866C20.8789 8.03866 20.8789 8.00127 20.8402 7.92649ZM21.2663 8.97338C21.2663 9.08555 21.2276 9.23511 21.1113 9.38466C21.0339 9.53422 20.9177 9.68378 20.8015 9.72117C20.8402 9.57161 20.8789 9.49683 20.9564 9.42205C20.9951 9.38466 21.1113 9.23511 21.2663 8.97338ZM21.1888 8.89861C21.1501 8.93599 21.1113 9.01077 21.0339 9.12294C20.9564 9.23511 20.9177 9.2725 20.8402 9.30989C20.8789 9.23511 20.9177 9.16033 20.9564 9.08555C21.0726 9.01077 21.1113 8.93599 21.1888 8.89861ZM21.1113 9.75856C21.1501 9.57161 21.2276 9.42205 21.3438 9.30989C21.3438 9.34727 21.305 9.42205 21.2663 9.49683C21.2276 9.609 21.1888 9.68378 21.1113 9.75856ZM21.305 8.26299C21.2663 8.2256 21.2276 8.18821 21.2663 8.18821C21.2663 8.18821 21.2663 8.15082 21.2276 8.15082C21.2276 8.18821 21.2276 8.2256 21.2276 8.26299C21.1888 8.2256 21.2276 8.26299 21.305 8.26299ZM21.6924 8.89861C21.6924 8.93599 21.6924 9.01077 21.6537 9.08555C21.6149 9.16033 21.5762 9.23511 21.4987 9.23511C21.46 9.16033 21.4987 9.12294 21.5374 9.08555C21.5762 9.04816 21.6537 8.97338 21.6924 8.89861ZM21.7311 8.48733C21.7311 8.5621 21.6924 8.63688 21.6537 8.67427C21.6149 8.71166 21.5762 8.74905 21.4987 8.82383C21.5374 8.74905 21.5374 8.71166 21.5762 8.67427C21.6149 8.63688 21.6149 8.5621 21.6149 8.48733H21.7311ZM21.7699 6.09442C21.7311 6.13181 21.6924 6.1692 21.6537 6.1692C21.6149 6.1692 21.5762 6.20659 21.5374 6.24398C21.5762 6.20659 21.6537 6.20659 21.6924 6.1692C21.7699 6.1692 21.7699 6.13181 21.7699 6.09442ZM22.1572 8.15082C22.196 8.18821 22.1572 8.26299 22.1185 8.33777C22.0798 8.41255 22.0023 8.48733 21.9248 8.59949C21.8473 8.67427 21.7699 8.74905 21.7311 8.82383C21.6537 8.89861 21.6149 8.89861 21.5762 8.86122C21.6537 8.71166 21.7699 8.59949 21.8473 8.52471C22.0023 8.41255 22.0798 8.26299 22.1572 8.15082ZM21.7699 7.5526C21.8861 7.40304 22.0023 7.29087 22.1185 7.2161C22.2347 7.14132 22.3122 7.02915 22.4284 6.95437C22.3122 6.99176 22.196 7.06654 22.041 7.2161C21.8473 7.36565 21.7699 7.47782 21.7699 7.5526ZM22.0798 8.07605C22.0798 8.15082 22.041 8.2256 21.9248 8.26299L21.8861 8.2256C21.8861 8.18821 21.9635 8.15082 22.0798 8.07605ZM21.9635 6.91698C22.1185 6.91698 22.3122 6.80482 22.4671 6.61787C22.6608 6.43093 22.8157 6.24398 22.932 6.13181C22.6608 6.28137 22.3896 6.43092 22.1572 6.65526C22.0798 6.69265 22.041 6.73004 22.0023 6.80482L21.9635 6.91698ZM22.1185 6.43093C22.0798 6.39354 22.0798 6.39354 22.041 6.39354C22.0023 6.39354 21.9635 6.43092 21.9635 6.46831C22.0023 6.46831 22.0023 6.46831 22.0023 6.46831C22.041 6.43092 22.041 6.43093 22.1185 6.43093ZM21.9635 8.93599C22.0023 8.89861 22.041 8.86122 22.041 8.86122C22.041 8.86122 22.041 8.82383 22.0798 8.82383C22.0023 8.86122 21.9635 8.89861 21.9635 8.93599ZM22.3509 6.20659C22.2347 6.20659 22.1572 6.24398 22.1572 6.28137C22.1572 6.31876 22.1572 6.31876 22.196 6.31876C22.196 6.28137 22.2347 6.24398 22.2734 6.28137C22.3122 6.24398 22.3509 6.24398 22.3509 6.20659ZM22.1572 8.07605C22.196 8.03866 22.2347 8.00127 22.3509 7.92649C22.3509 7.96388 22.3122 7.96388 22.2734 8.00127C22.2734 8.07605 22.2347 8.07605 22.1572 8.07605ZM22.4671 6.05703C22.4671 6.09442 22.4671 6.13181 22.4284 6.13181C22.3896 6.13181 22.3896 6.13181 22.3896 6.1692V6.20659L22.4284 6.1692C22.4671 6.1692 22.4671 6.13181 22.4671 6.05703ZM22.3896 7.81432C22.4671 7.73954 22.5059 7.66477 22.5833 7.58999C22.6221 7.5526 22.7383 7.47782 22.8545 7.44043C22.777 7.51521 22.6608 7.62738 22.5833 7.70215C22.5059 7.77693 22.4284 7.81432 22.3896 7.81432ZM22.8545 6.87959C22.8545 6.99176 22.777 7.02915 22.6608 7.02915L22.8545 6.87959ZM23.0869 6.39354C23.0869 6.31876 23.0869 6.28137 23.0482 6.28137C23.0094 6.31876 22.932 6.39354 22.8545 6.43093C22.777 6.5057 22.6995 6.54309 22.6995 6.61787C22.777 6.5057 22.932 6.43093 23.0869 6.39354ZM22.8545 6.99176L22.777 7.14132C22.7383 7.14132 22.7383 7.14132 22.6995 7.10393L22.7383 7.06654C22.8157 7.02915 22.8545 6.99176 22.8545 6.99176ZM23.513 5.90748C23.4743 5.90748 23.3968 5.90748 23.3581 5.94487C23.2806 5.98226 23.2418 6.01965 23.1644 6.05703C23.0869 6.09442 23.0869 6.13181 23.0869 6.13181C23.0869 6.1692 23.1256 6.1692 23.2806 6.1692H23.2418C23.2806 6.05703 23.3193 5.98226 23.3968 5.98226C23.4743 5.98226 23.513 5.98226 23.513 5.90748ZM23.1256 21.6483C23.1256 21.6857 23.1256 21.7978 23.1256 21.9474C23.1256 22.097 23.1256 22.2465 23.1256 22.4335C23.1256 22.6204 23.1256 22.77 23.1256 22.9569C23.1256 23.1439 23.1256 23.2934 23.1256 23.4056C23.1256 23.5177 23.1256 23.5177 23.1256 23.443C23.1256 23.3682 23.1644 23.2186 23.1644 23.0691C23.1644 22.9195 23.2031 22.7326 23.2031 22.583C23.2031 22.3961 23.2418 22.2839 23.2418 22.1717C23.2418 22.1343 23.2418 22.0596 23.2418 22.0222C23.2418 21.9848 23.2418 21.91 23.2418 21.8726C23.2418 21.6857 23.2418 21.5361 23.2418 21.3866C23.2418 21.237 23.2418 21.1248 23.2806 21.0501C23.1256 21.1996 23.0869 21.3866 23.1256 21.6483ZM23.1644 20.0032C23.1644 20.0779 23.1644 20.1527 23.1644 20.2275C23.1644 20.3023 23.2031 20.3771 23.2418 20.4144C23.2806 20.4144 23.2806 20.4144 23.2806 20.3771C23.2806 20.3397 23.2806 20.3771 23.2806 20.4144C23.3193 20.4144 23.3193 20.3023 23.3968 20.0779C23.4355 19.8536 23.4743 19.6667 23.5517 19.5919C23.513 19.5919 23.4743 19.6293 23.4743 19.6667L23.4355 19.7041L23.5517 18.9189C23.513 18.9563 23.4743 19.0684 23.3968 19.2554C23.3581 19.4423 23.3193 19.5545 23.3193 19.5919C23.3193 19.5545 23.3193 19.5545 23.3193 19.5171C23.3193 19.4797 23.3193 19.4423 23.3193 19.3676C23.2806 19.4423 23.2806 19.5545 23.3193 19.6667C23.3193 19.7788 23.3193 19.8536 23.3193 19.891C23.3193 19.7414 23.2806 19.6667 23.2418 19.5919C23.1644 19.7041 23.1644 19.8162 23.1644 20.0032ZM23.3193 22.77C23.2418 22.8821 23.2031 22.9943 23.2031 23.0691C23.2031 23.256 23.2031 23.256 23.2418 23.1065C23.3193 22.9943 23.3193 22.8821 23.3193 22.77ZM23.3581 21.4613C23.3193 21.4987 23.3193 21.5735 23.2806 21.6109C23.2806 21.6857 23.2418 21.7231 23.2418 21.7605C23.2418 21.7978 23.2418 21.8352 23.2418 21.91C23.2418 21.9474 23.2418 21.9848 23.2418 22.0596C23.3193 21.8726 23.3581 21.6857 23.3581 21.4613ZM23.6679 21.3866C23.513 21.7978 23.4355 22.1343 23.3968 22.3961C23.3581 22.6578 23.3581 22.8447 23.3581 22.9195C23.3581 23.0317 23.3968 23.0317 23.4355 22.9195C23.4743 22.8447 23.513 22.6204 23.5517 22.3213L23.7067 21.6109C23.7067 21.5735 23.7067 21.5361 23.7067 21.4987C23.6679 21.4613 23.6679 21.424 23.6679 21.3866ZM23.5517 24.1907C23.5517 24.1534 23.5905 24.0786 23.6292 24.0038C23.6292 23.929 23.5905 23.8916 23.5517 23.8916C23.6292 23.4804 23.6292 23.2186 23.5517 23.1439C23.4743 23.0691 23.4743 23.3308 23.4743 23.929C23.513 24.0786 23.513 24.1534 23.5517 24.1907ZM23.5517 16.7503C23.5517 15.8904 23.6679 15.0678 23.9004 14.2079C24.1328 13.3853 24.249 12.5253 24.249 11.7028C24.249 11.628 24.2877 11.5906 24.3265 11.5158C24.3652 11.4785 24.3652 11.4785 24.4427 11.4411C24.4427 11.628 24.4039 11.8897 24.3652 12.1888C24.3265 12.5253 24.2877 12.7871 24.2103 12.974C24.1715 13.1984 24.1328 13.4227 24.094 13.647C24.0553 13.8714 24.0166 14.1331 23.9391 14.3948C23.9778 14.32 24.0166 14.32 24.0166 14.3948C24.0166 14.4696 24.0166 14.4696 24.0166 14.4322C24.0166 14.507 24.0166 14.5817 23.9778 14.6191C23.9391 14.6565 23.9391 14.6939 23.9004 14.8061C23.9004 14.9556 23.9004 15.1052 23.9391 15.18C23.9004 15.2548 23.8616 15.4043 23.8229 15.5913C23.7842 15.7782 23.7842 15.9651 23.7454 16.1147C23.7067 16.3016 23.7067 16.4512 23.6679 16.6008C23.6292 16.7503 23.6292 16.8251 23.5905 16.8251C23.5905 16.7877 23.5905 16.7877 23.5905 16.7503C23.5905 16.7129 23.5905 16.6755 23.5905 16.6381C23.5517 16.6381 23.5517 16.6755 23.5517 16.7129C23.5905 16.7503 23.5905 16.7503 23.5517 16.7503ZM23.7842 19.2554C23.7067 19.4423 23.6679 19.5919 23.6679 19.7788C23.6679 19.9284 23.6292 20.0779 23.5905 20.2649L23.6292 20.3023C23.6679 20.3023 23.6679 20.2649 23.7067 20.1527C23.7454 20.0779 23.7454 19.9658 23.7842 19.8162C23.8229 19.7041 23.8229 19.5545 23.8616 19.4423C23.9004 19.3302 23.9004 19.218 23.9004 19.1806V19.1432C23.9391 19.1058 23.9391 19.1058 23.9391 19.0684C23.9391 19.0311 23.9391 19.0311 23.9004 19.0311C23.9004 19.0684 23.9004 19.1058 23.8616 19.1432C23.7842 19.1806 23.7842 19.218 23.7842 19.2554ZM23.7842 21.0127C23.8616 20.9379 23.9004 20.8631 23.9004 20.8257C23.9391 20.6014 23.9391 20.4518 23.9778 20.4144C24.0166 20.3771 24.0166 20.3023 24.0166 20.3023C24.0166 20.2649 24.0166 20.2649 24.0166 20.1901C24.0166 20.1527 24.0553 20.0406 24.0553 19.8162C24.0553 19.7788 24.0553 19.7788 24.0553 19.7414C24.0553 19.7041 24.0553 19.7041 24.0553 19.6667C24.0553 19.6293 24.0553 19.5545 24.094 19.5171C24.1328 19.4423 24.1328 19.3676 24.1328 19.2554C24.0553 19.4423 24.0166 19.7414 23.9778 20.0779C23.9391 20.4144 23.9004 20.6388 23.8229 20.7136C23.7454 20.7883 23.7067 20.8631 23.7842 20.8631C23.8229 20.7883 23.8229 20.8631 23.7842 21.0127ZM23.8229 22.3213C23.8616 22.2091 23.9004 22.097 23.9004 21.9848C23.9004 21.8726 23.9004 21.7605 23.9004 21.6483C23.9004 21.6109 23.9004 21.6109 23.9004 21.6109C23.9004 21.6109 23.9004 21.6109 23.9004 21.5735L24.0166 21.3118C24.0166 21.237 24.0166 21.237 23.9778 21.3118C23.9391 21.3866 23.9391 21.424 23.9391 21.3866C23.9004 21.3866 23.9004 21.4987 23.8616 21.7231C23.8229 21.9474 23.8229 22.097 23.8229 22.1717C23.7842 22.2091 23.7842 22.2839 23.8229 22.3213ZM24.1715 21.3866C24.1328 21.3866 24.0553 21.5361 24.0166 21.8726C23.9391 22.2091 23.9004 22.4708 23.9004 22.6578C23.9391 22.6204 23.9778 22.5082 24.0553 22.3587C24.1328 22.2091 24.1715 21.91 24.1715 21.424V21.3866ZM24.0553 18.3207C24.0166 18.4328 23.9778 18.545 24.0166 18.6198C24.0166 18.6945 24.0166 18.8067 23.9391 18.9563C24.0166 18.8441 24.094 18.6945 24.1328 18.545C24.1328 18.5076 24.1328 18.4702 24.1328 18.4328C24.0553 18.3954 24.0553 18.358 24.0553 18.3207ZM23.9391 20.9379C24.0553 20.9379 24.094 20.8631 24.094 20.7136C24.0553 20.564 24.0553 20.4892 24.0553 20.4144C24.0553 20.3771 24.0553 20.3771 24.0553 20.3771V20.3397C24.0553 20.3023 24.0553 20.3023 24.0553 20.3023V20.2649C24.0166 20.3771 24.0166 20.5266 23.9778 20.6762C23.9778 20.7883 23.9391 20.9005 23.9391 20.9379ZM24.2103 13.834C24.2103 13.8714 24.2103 13.9461 24.1715 14.1331C24.1328 14.32 24.094 14.3948 24.0553 14.3948V14.2079C24.0553 14.1705 24.0553 14.1331 24.094 14.0957C24.0553 14.0583 24.0553 14.0209 24.094 13.9087C24.094 13.7966 24.1328 13.7966 24.2103 13.834ZM24.249 22.2465C24.249 22.2465 24.2103 22.2465 24.249 22.2465C24.2103 22.2091 24.2103 22.2091 24.1715 22.2091C24.1328 22.2091 24.1328 22.2465 24.1328 22.2839C24.1328 22.3213 24.1328 22.3587 24.094 22.3587C24.1328 22.3961 24.1328 22.4708 24.1328 22.583C24.1328 22.6204 24.1328 22.6952 24.1328 22.7326C24.1328 22.8074 24.1328 22.8447 24.1328 22.8821C24.1328 22.9569 24.1328 22.9943 24.1715 23.0691L24.249 22.2465ZM24.249 11.3289C24.249 11.4411 24.2103 11.5158 24.1328 11.5158V11.4785C24.1715 11.4037 24.2103 11.3289 24.249 11.3289ZM24.5976 13.0488C24.5589 13.0862 24.5201 13.161 24.4814 13.2731C24.4427 13.3853 24.4427 13.4975 24.4427 13.6096C24.5589 13.4227 24.5976 13.2357 24.5976 13.0488ZM24.5589 13.7966C24.5589 13.7592 24.5589 13.7218 24.5976 13.6844C24.6364 13.647 24.6364 13.5722 24.6364 13.5349L24.4814 13.7966H24.5589V13.7966ZM24.5201 22.7326C24.5589 22.6952 24.6364 22.5456 24.7138 22.3213C24.7913 22.097 24.83 21.9474 24.83 21.8726C24.83 21.8352 24.7913 21.7978 24.7526 21.7231C24.7913 21.7978 24.7526 21.8726 24.7138 21.91C24.6751 21.9474 24.6364 22.0222 24.5589 22.1343C24.5589 22.1717 24.5589 22.2091 24.5589 22.3213C24.5589 22.4708 24.5201 22.583 24.5201 22.7326ZM24.7138 11.142L24.5976 11.5158C24.5976 11.628 24.5976 11.7028 24.6364 11.7776C24.6364 11.7028 24.6751 11.5906 24.7526 11.4411C24.83 11.2915 24.8688 11.1793 24.8688 11.142L24.83 11.1046L24.7138 11.142C24.7526 11.142 24.7526 11.142 24.7138 11.142ZM24.7526 22.6952C24.7138 22.6952 24.6751 22.8074 24.6364 22.9943C24.5976 23.1812 24.5976 23.2934 24.5976 23.3308C24.5976 23.2934 24.6364 23.2934 24.6751 23.256C24.7138 23.2186 24.7526 23.0691 24.7526 22.8447C24.7913 22.7326 24.7913 22.6952 24.7526 22.6952ZM24.7526 10.8802C24.7526 10.8428 24.7526 10.8055 24.7913 10.7307C24.83 10.6559 24.83 10.5811 24.83 10.5437C24.7526 10.6559 24.7138 10.7681 24.7526 10.8802C24.7526 10.9176 24.7138 10.8802 24.7526 10.8802ZM26.2245 22.6952C26.2245 22.6204 26.2245 22.5456 26.2245 22.4708C26.2245 22.3961 26.2245 22.3213 26.2245 22.2091C26.2245 22.1717 26.2245 22.097 26.2245 22.0222C26.2245 21.9474 26.302 21.91 26.3795 21.91C26.4182 21.4987 26.457 21.1248 26.5344 20.751C26.6119 20.3771 26.6507 20.0032 26.6507 19.5919C26.6119 19.6667 26.5732 19.7414 26.6119 19.8162C26.6119 19.891 26.6119 19.9284 26.5732 19.9658V19.2554C26.5344 19.5171 26.4957 19.7788 26.4182 19.9658C26.3795 20.1901 26.3408 20.4144 26.2633 20.6388C26.2633 20.4892 26.2633 20.3397 26.2633 20.1527C26.2633 20.0032 26.2633 19.8536 26.2633 19.7041C26.2246 19.7041 26.2246 19.6667 26.2633 19.5545C26.2633 19.4797 26.2633 19.4049 26.2245 19.3676L26.0696 20.6762C26.0696 20.7509 26.0696 20.8257 26.0696 20.9005C26.0696 20.9753 26.0696 21.0127 26.0696 21.0501C26.0309 21.0127 26.0309 20.9753 26.0309 20.9005C26.0309 20.8257 26.0309 20.7509 26.0309 20.6762C26.0309 20.6014 26.0309 20.5266 26.0309 20.4892C26.0309 20.4144 26.0309 20.3397 25.9921 20.3023C25.9534 20.3771 25.9147 20.4518 25.9534 20.5266C25.9534 20.6014 25.9534 20.6762 25.9147 20.7883C25.8759 20.7509 25.8759 20.7136 25.8759 20.6388C25.8759 20.5266 25.8759 20.4144 25.9147 20.3023C25.9534 20.1901 25.9534 20.0406 25.9534 19.891L25.9147 19.8162C25.8372 19.8162 25.7597 19.8536 25.7597 19.9284C25.7597 19.891 25.7597 19.8162 25.7597 19.7414C25.7597 19.6667 25.7985 19.6293 25.8759 19.6293V19.7414C25.9147 19.7414 25.9147 19.7041 25.9147 19.6293C25.9147 19.5545 25.9534 19.4797 25.9534 19.3676C25.9534 19.2554 25.9534 19.1806 25.9534 19.1058C25.9534 19.0311 25.9534 18.9937 25.9534 19.0311C25.9147 19.0684 25.8759 19.1806 25.8759 19.2928C25.8759 19.4423 25.8372 19.4797 25.8372 19.4797L25.7597 19.4049C25.7597 19.3676 25.7597 19.3302 25.7984 19.2928C25.8372 19.2554 25.8372 19.2554 25.8372 19.218V19.1806C25.8372 19.0684 25.8372 18.9563 25.8372 18.8067C25.8372 18.6572 25.8759 18.545 25.8759 18.4328C25.8372 18.4702 25.8372 18.545 25.7984 18.6572C25.7597 18.7693 25.7597 18.8441 25.7597 18.8815C25.7597 18.8441 25.7597 18.8441 25.7597 18.8441C25.7597 18.8441 25.7597 18.8441 25.7597 18.8067C25.7597 18.6945 25.7597 18.5824 25.7984 18.4702C25.8372 18.358 25.8372 18.2459 25.8372 18.1337C25.7597 18.4328 25.721 18.7693 25.6435 19.0311C25.566 19.3302 25.5273 19.5919 25.5273 19.8162V19.8536C25.5273 19.891 25.5273 19.891 25.5273 19.9284C25.5273 19.9658 25.5273 20.0032 25.5273 20.0406C25.5273 20.1527 25.4886 20.2275 25.4498 20.2649L25.4111 20.2275H25.3723V20.1901C25.2949 20.3023 25.2561 20.3771 25.2561 20.4144C25.2561 20.4518 25.2561 20.4892 25.2561 20.5266C25.2561 20.564 25.2561 20.6014 25.2561 20.7136C25.2561 20.8257 25.2561 20.8631 25.2949 20.8631L25.3336 20.8257C25.3336 20.9753 25.3336 21.0127 25.2949 21.0127C25.2949 20.9753 25.2949 20.9753 25.2561 20.9753C25.2174 20.9753 25.2174 20.9379 25.2174 20.9005C25.1787 21.0501 25.1399 21.1622 25.1012 21.1996C25.0625 21.237 25.0237 21.3492 24.985 21.5361L25.0237 21.4987H25.0625C25.1012 21.4987 25.1399 21.5361 25.1399 21.5735C25.1787 21.5735 25.1787 21.5361 25.2561 21.424C25.2174 21.5361 25.1787 21.6483 25.1399 21.7605C25.1012 21.8726 25.0625 21.9848 24.985 22.0222H25.0625C25.0237 22.2091 25.0237 22.2839 25.0625 22.2091C25.1012 22.1343 25.1399 22.0222 25.2174 21.91C25.2561 21.7978 25.2949 21.7231 25.3336 21.7231C25.3336 21.7231 25.2949 21.8726 25.2174 22.1717C25.2949 22.2465 25.3336 22.3213 25.3336 22.4335V23.256C25.3336 23.2934 25.3723 23.3682 25.4111 23.4056C25.4498 23.4804 25.4886 23.5177 25.5273 23.5925C25.566 23.5177 25.6435 23.4804 25.7597 23.443C25.8759 23.4056 25.9534 23.3682 25.9534 23.256C25.9534 23.2186 25.9534 23.1439 25.9921 23.0691C26.0309 22.9943 26.0696 22.9195 26.1858 22.9195C26.1858 22.77 26.1858 22.6952 26.2245 22.6952C26.2633 22.7326 26.2633 22.7326 26.302 22.7326C26.302 22.6578 26.302 22.583 26.302 22.5082C26.302 22.4335 26.302 22.3213 26.302 22.2465C26.302 22.097 26.302 21.9848 26.2633 21.9474C26.2633 22.1343 26.2633 22.2839 26.2633 22.3587C26.2633 22.5456 26.2633 22.6204 26.2245 22.6952ZM25.2561 5.42142C25.2561 5.57098 25.2949 5.60836 25.4498 5.57098C25.5273 5.53359 25.5273 5.4962 25.4498 5.4962C25.3723 5.45881 25.2949 5.45881 25.2561 5.42142ZM25.4498 5.90748C25.4498 5.8327 25.4111 5.79531 25.3723 5.75792C25.2949 5.72053 25.2561 5.72053 25.2561 5.68314C25.2561 5.79531 25.2949 5.87009 25.4498 5.90748ZM25.6048 21.4613C25.6048 21.424 25.6048 21.424 25.6048 21.424V21.3866C25.6435 21.3118 25.6822 21.237 25.6822 21.1996C25.721 21.1996 25.721 21.237 25.721 21.2744C25.721 21.3118 25.721 21.3492 25.6822 21.3866C25.6048 21.3866 25.6048 21.424 25.6048 21.4613ZM25.7597 5.57098C25.7597 5.53359 25.7597 5.4962 25.721 5.4962C25.6822 5.4962 25.6822 5.45881 25.6435 5.45881C25.6435 5.53359 25.6435 5.60836 25.6822 5.60836C25.721 5.57098 25.721 5.57098 25.7597 5.57098ZM25.7984 5.87009C25.7597 5.90748 25.721 5.94487 25.721 6.01965C25.721 6.05703 25.6822 6.09442 25.6822 6.09442L25.8372 6.13181C25.8372 6.09442 25.8372 6.05703 25.8372 6.05703C25.8372 6.05703 25.8372 6.05703 25.8759 6.05703H25.9534C25.9921 6.05703 25.9921 6.05703 25.9921 6.01965C25.8759 5.94487 25.8372 5.90748 25.7984 5.87009ZM25.9534 21.3866C26.0309 21.4613 26.0696 21.4987 26.0696 21.5361C26.0696 21.6109 26.0696 21.7231 26.0696 21.8726C26.0696 22.0222 26.0696 22.1717 26.0309 22.3961C25.9921 22.3961 25.9534 22.2839 25.9534 22.0222V21.3866ZM26.1471 6.65526C26.1471 6.58048 26.1083 6.54309 26.0696 6.46831C26.0309 6.43092 26.0309 6.43093 26.0309 6.39354C25.9921 6.43093 25.9921 6.46831 25.9921 6.5057C25.9921 6.58048 26.0696 6.61787 26.1471 6.65526ZM26.2245 6.24398C26.2245 6.20659 26.1858 6.13181 26.0696 6.05703C26.1083 6.13181 26.1471 6.20659 26.1471 6.24398C26.1471 6.28137 26.1471 6.35615 26.1471 6.43093C26.1858 6.43093 26.2245 6.43093 26.2245 6.39354C26.2633 6.43093 26.2633 6.5057 26.3408 6.54309C26.3795 6.61787 26.457 6.76743 26.5344 6.99176C26.4957 6.87959 26.457 6.76743 26.4182 6.61787C26.4182 6.5057 26.3408 6.35615 26.2245 6.24398ZM26.1858 21.237C26.1471 21.237 26.1083 21.2744 26.1083 21.3118V21.3492H26.0696C26.1083 21.2744 26.1083 21.1996 26.0696 21.1248C26.0696 21.0501 26.0696 20.9379 26.1471 20.8631C26.1471 20.9379 26.1471 21.0127 26.1858 21.1248C26.2246 21.237 26.2246 21.3118 26.1858 21.3492C26.1858 21.3118 26.1858 21.2744 26.1858 21.237ZM26.8831 6.91698C26.8443 6.80482 26.7669 6.58048 26.6119 6.24398C26.4957 5.90748 26.3408 5.68314 26.2245 5.57098C26.2633 5.60836 26.302 5.72053 26.3795 5.8327C26.457 5.98226 26.5344 6.09442 26.5732 6.24398C26.6507 6.39354 26.7281 6.58048 26.8056 6.76743L26.8831 6.91698ZM26.302 6.80482C26.3408 6.84221 26.3408 6.84221 26.3408 6.87959C26.3408 6.91698 26.3795 6.95437 26.4182 6.99176C26.4182 6.84221 26.3795 6.80482 26.302 6.80482ZM26.302 6.95437C26.302 6.99176 26.302 6.99176 26.3408 7.02915C26.3408 7.06654 26.3408 7.06654 26.3795 7.10393V7.02915C26.3795 6.99176 26.3795 6.95437 26.302 6.95437ZM26.3408 23.6299C26.4182 23.6299 26.4957 23.6673 26.4957 23.7047C26.4957 23.7421 26.4957 23.8169 26.457 23.8542C26.4182 23.929 26.4182 23.9664 26.4182 24.0038C26.3408 23.929 26.302 23.8542 26.302 23.8169C26.302 23.7795 26.302 23.7421 26.302 23.7421C26.3408 23.7047 26.3408 23.6673 26.3408 23.6299ZM26.4182 7.2161C26.4182 7.25349 26.4182 7.29087 26.4182 7.29087V7.32826C26.4182 7.36565 26.4182 7.36565 26.457 7.36565H26.5344V7.40304H26.5732C26.5732 7.36565 26.5732 7.32826 26.5344 7.29087C26.457 7.29087 26.457 7.25349 26.4182 7.2161ZM26.9218 7.70215C26.9218 7.62738 26.8831 7.5526 26.7669 7.51521C26.7669 7.62738 26.8056 7.70215 26.9218 7.70215ZM27.2317 7.58999C27.2317 7.5526 27.2317 7.51521 27.2317 7.47782C27.2317 7.44043 27.193 7.40304 27.1542 7.29087C27.1155 7.44043 27.1542 7.5526 27.2317 7.58999Z" fill="black"/>
<path d="M39.9372 14.6565C39.976 14.7687 39.976 14.9182 39.976 15.0678C39.976 15.2174 39.976 15.4043 39.976 15.5912C39.976 16.339 39.8985 17.3485 39.7048 18.5076C39.5111 19.704 39.3174 21.0127 39.0076 22.4335C38.7364 23.8542 38.4265 25.3872 38.1554 26.9575C37.8455 28.5653 37.5743 30.1356 37.3032 31.6686C37.032 33.2389 36.7996 34.7345 36.6059 36.1552C36.4897 37.6134 36.4122 38.8847 36.4122 40.0063C36.4122 40.0437 36.4122 40.0811 36.3735 40.0811C36.3347 40.0811 36.296 40.0811 36.3347 40.0437C36.3735 40.0063 36.3347 40.0063 36.296 40.0063C36.2573 40.0063 36.2185 40.0063 36.2185 40.0437C36.2185 40.0811 36.1798 40.1185 36.1023 40.1185C36.0636 40.0063 36.0249 39.9316 35.9861 39.9316C35.9086 39.9316 35.8312 40.0437 35.7924 40.2307C35.715 40.4176 35.6375 40.5298 35.5988 40.5672C35.3276 40.5672 35.2114 40.6046 35.2114 40.7541C35.2114 40.9037 35.2114 40.9784 35.2501 40.9784H35.1339C35.0952 40.9784 35.0952 40.9784 35.0952 40.9411C35.0564 40.9411 35.0177 40.9784 34.979 41.0158L34.9015 40.9037C34.7853 40.9037 34.7078 40.9411 34.6691 41.0532C34.6303 41.1654 34.5916 41.2028 34.5529 41.2028C34.5141 41.2028 34.5141 41.2028 34.5141 41.2028C34.5141 41.2028 34.4754 41.2028 34.4367 41.2028C34.3979 41.2028 34.3592 41.2402 34.3205 41.3149C34.2817 41.3897 34.243 41.5019 34.2042 41.6141H34.1268C34.088 41.6141 34.0493 41.6514 34.0106 41.6888C33.9718 41.7262 33.9331 41.801 33.8556 41.8384C33.7781 41.8758 33.6619 41.9506 33.507 41.988C33.352 42.0253 33.1584 42.0627 32.8485 42.0627C32.771 42.0627 32.6935 42.0627 32.6161 42.0253C32.5386 41.9879 32.4224 41.9132 32.3449 41.7636C32.2674 41.6141 32.19 41.3897 32.1125 41.0906C32.035 40.7915 32.035 40.3428 32.035 39.782C32.035 39.6698 32.035 39.5577 32.035 39.4455C32.035 39.3333 32.035 39.2585 32.0737 39.2212V39.109C32.0737 38.9594 32.1125 38.7725 32.19 38.5482C32.19 38.4734 32.19 38.3986 32.19 38.3612C32.19 38.2864 32.19 38.2116 32.19 38.1743C32.19 38.0995 32.2287 38.0247 32.3062 37.9873C32.3062 37.9125 32.3062 37.8378 32.3062 37.8004C32.3062 37.7256 32.3062 37.6882 32.3062 37.6508C32.3062 37.2769 32.3449 36.9404 32.4998 36.6413C32.6161 36.3048 32.6548 36.0057 32.6548 35.6692V35.4075C32.6548 35.1457 32.6935 34.9588 32.8097 34.8466C32.8872 34.0988 33.0422 33.3137 33.2358 32.4911C33.4295 31.6686 33.5457 30.9208 33.5457 30.2478H33.4683C33.4295 30.2478 33.4295 30.2478 33.4295 30.2104C33.4683 29.9861 33.5457 29.7991 33.6232 29.6122C33.7007 29.4252 33.7781 29.2757 33.7781 29.0887H33.7394C33.7007 29.0887 33.7007 29.0887 33.7007 29.1261C33.7007 29.1635 33.6619 29.2009 33.5845 29.2009C33.7007 28.6027 33.8556 27.8923 34.0106 27.1071C34.1655 26.3219 34.3205 25.4994 34.4754 24.6394C34.6303 23.8168 34.7853 22.9943 34.9402 22.1717C35.0952 21.3866 35.2114 20.6762 35.3276 20.0779C35.0952 20.3397 34.824 20.6388 34.5529 20.9005C34.2817 21.1996 33.9718 21.4239 33.7007 21.6483C33.3908 21.8726 33.1196 22.0596 32.8097 22.2091C32.4998 22.3587 32.19 22.4335 31.8801 22.4335C30.9891 22.4335 30.3306 22.1717 29.982 21.6109C29.6333 21.0501 29.4397 20.3771 29.4397 19.5919C29.4397 19.0684 29.4784 18.545 29.6333 17.9468C29.7496 17.3859 29.9045 16.8251 30.0982 16.3016C30.2919 15.7782 30.4856 15.2921 30.718 14.8809C30.9504 14.4322 31.1441 14.0957 31.3765 13.834C31.4927 13.6844 31.6864 13.5722 31.9188 13.4975C32.19 13.4227 32.4224 13.3479 32.6935 13.3479C32.8872 13.3479 33.0422 13.4227 33.1584 13.5348C33.2746 13.6844 33.3133 13.834 33.3133 14.0583C33.3133 14.3574 33.2358 14.7313 33.0422 15.1052C32.8485 15.5165 32.6548 15.9277 32.4224 16.4512C32.19 16.9746 31.9963 17.4981 31.8026 18.1337C31.6089 18.7319 31.5314 19.4049 31.5314 20.1527C31.5314 20.4144 31.5702 20.6014 31.6476 20.7883C31.7251 20.9753 31.8801 21.0501 32.035 21.0501C32.3449 21.0501 32.6935 20.7883 33.1584 20.2275C33.5845 19.6667 34.0493 18.9937 34.5141 18.2459C34.979 17.4981 35.4438 16.7129 35.8699 15.9651C36.296 15.2174 36.6834 14.6191 36.9933 14.2452C37.1095 14.0957 37.2644 13.9835 37.4581 13.9087C37.6518 13.7966 37.8455 13.7218 38.0391 13.647C38.2328 13.5722 38.3878 13.4975 38.5427 13.4601C38.6977 13.4227 38.7751 13.3853 38.8139 13.3853C39.085 13.3853 39.3174 13.4975 39.5111 13.7592C39.7048 13.9087 39.8598 14.2452 39.9372 14.6565ZM32.3062 39.2212L32.19 39.2585C32.1512 39.2585 32.1512 39.2585 32.1512 39.2959C32.1512 39.3333 32.1512 39.3333 32.19 39.3707C32.2287 39.4081 32.2287 39.4455 32.2287 39.4455L32.3062 39.2212ZM32.3062 39.1838C32.3449 39.1838 32.3449 39.1464 32.3062 39.1838C32.3062 39.1464 32.3062 39.1464 32.3062 39.109V39.0342C32.3062 38.8847 32.3062 38.6977 32.3449 38.5108C32.3836 38.3238 32.3836 38.1369 32.4611 37.9499L32.3062 37.9873C32.3062 38.0621 32.3062 38.1743 32.3062 38.249C32.3062 38.3238 32.3062 38.436 32.3062 38.5482V38.6977C32.2674 38.7351 32.2674 38.8099 32.2674 38.8847C32.2287 38.8847 32.2674 38.9968 32.3062 39.1838ZM32.4611 37.8752C32.4224 37.8378 32.4224 37.8378 32.4224 37.8004V37.6508C32.3836 37.6882 32.3836 37.6882 32.3449 37.6882C32.3062 37.6882 32.3062 37.7256 32.3062 37.763C32.3062 37.7256 32.3062 37.763 32.3062 37.8004C32.3062 37.8378 32.3449 37.8752 32.3836 37.8752H32.4611V37.8752ZM32.4224 37.6508C32.4611 37.576 32.4998 37.4639 32.4998 37.3517C32.4998 37.2021 32.4998 37.09 32.4998 36.9778V36.903C32.5386 36.7909 32.5773 36.6787 32.6548 36.6039C32.6935 36.5291 32.7323 36.4544 32.7323 36.3422V36.2674C32.6548 36.2674 32.6161 36.3048 32.5386 36.4544C32.4998 36.5665 32.4611 36.6787 32.4224 36.8283C32.3836 36.9778 32.3449 37.1274 32.3449 37.2769C32.3449 37.4265 32.3449 37.5386 32.3449 37.6134C32.3449 37.6508 32.3449 37.6508 32.4224 37.6508ZM32.5773 39.8942C32.6161 39.8568 32.6548 39.8194 32.6548 39.7446V39.5577C32.6548 39.4829 32.6548 39.4455 32.6935 39.4081C32.6161 39.4455 32.5773 39.4455 32.5773 39.4829C32.5773 39.5203 32.5386 39.5203 32.5386 39.5203C32.5386 39.4081 32.5386 39.3333 32.5386 39.2585C32.5386 39.1838 32.4998 39.109 32.4611 39.0342C32.4224 39.109 32.4224 39.2212 32.4224 39.3333V39.8194C32.4611 39.8568 32.4998 39.8942 32.5386 39.8942C32.5773 39.8942 32.5773 39.8568 32.5773 39.8942ZM32.5773 38.3986C32.5773 38.3612 32.5773 38.2864 32.6161 38.1743C32.6548 38.0621 32.6548 37.9873 32.6548 37.9125L32.6161 37.8378C32.6161 37.8004 32.6161 37.763 32.6548 37.763C32.6935 37.763 32.6935 37.7256 32.6935 37.6882C32.6935 37.6508 32.6548 37.6134 32.6161 37.576C32.6161 37.5386 32.6161 37.5013 32.6548 37.4639C32.6935 37.4265 32.6935 37.3891 32.6935 37.3517C32.6935 37.3143 32.6935 37.3143 32.6548 37.2769C32.6161 37.3891 32.6161 37.5013 32.5773 37.6134C32.5386 37.7256 32.5386 37.8751 32.5386 38.0247C32.5773 38.0621 32.5773 38.0621 32.5773 38.1369C32.5773 38.2117 32.5773 38.2864 32.5386 38.3612C32.4998 38.3986 32.4998 38.4734 32.4998 38.5108V38.5482L32.5773 38.5108V38.436C32.5773 38.436 32.5773 38.3986 32.5773 38.3986ZM32.5386 40.0811C32.5386 40.1185 32.5386 40.1559 32.5773 40.1933L32.6548 40.2681C32.6935 40.2681 32.6935 40.268 32.6935 40.2307C32.6935 40.1933 32.6935 40.1559 32.6935 40.1933C32.6935 40.1933 32.6935 40.1933 32.6548 40.1185H32.5386V40.0811ZM32.7323 40.6793C32.7323 40.6419 32.7323 40.6046 32.7323 40.5298C32.7323 40.4924 32.7323 40.455 32.7323 40.3802C32.6935 40.4176 32.6548 40.455 32.6548 40.5298C32.6548 40.5672 32.6161 40.6046 32.5773 40.6419C32.6161 40.6419 32.6548 40.6419 32.6548 40.6793C32.6548 40.7167 32.6935 40.7167 32.7323 40.7167V40.6793ZM32.5773 37.2769C32.6548 37.2769 32.6935 37.2395 32.6935 37.2021V37.1274C32.6161 37.1648 32.5773 37.2021 32.5773 37.2769ZM32.7323 35.4449C32.6548 35.5944 32.6161 35.7814 32.6161 36.0805V36.23C32.6548 36.23 32.6935 36.1553 32.6935 36.0431C32.6935 35.9309 32.7323 35.7814 32.7323 35.6692C32.771 35.5196 32.771 35.4075 32.8097 35.2953C32.8485 35.1831 32.8872 35.1084 32.9647 35.1084C32.9259 34.9588 32.8872 34.884 32.8485 34.884C32.8097 34.884 32.8097 34.884 32.8485 34.884C32.7323 34.884 32.6935 35.0336 32.6935 35.3327V35.4449H32.7323ZM32.6935 36.6039C32.6935 36.7161 32.6935 36.7909 32.7323 36.8656C32.771 36.8656 32.8097 36.8283 32.8097 36.7161V36.5665H32.6935V36.6039ZM32.771 37.9125C32.8097 37.8751 32.8485 37.8004 32.8485 37.7256C32.8485 37.6882 32.8485 37.6508 32.8485 37.6134C32.8485 37.576 32.8485 37.576 32.8485 37.5386V37.576C32.8485 37.6134 32.8485 37.6508 32.8097 37.6882C32.771 37.7256 32.771 37.763 32.771 37.8004C32.7323 37.9125 32.7323 37.9125 32.771 37.9125ZM33.6232 32.4537C33.6619 32.3416 33.6619 32.2294 33.7007 32.1172C33.7394 32.0051 33.7394 31.9303 33.7394 31.8181V31.7059C33.6619 31.7433 33.6232 31.8181 33.5457 31.9677L33.4683 32.2294C33.4683 32.3042 33.4683 32.3416 33.507 32.4163C33.4295 32.6033 33.352 32.7902 33.3133 32.9398C33.352 32.9772 33.352 33.052 33.352 33.1267C33.352 33.2015 33.3133 33.2763 33.2358 33.2763V33.1641C33.2358 33.0146 33.2358 32.9024 33.2746 32.7528C33.3133 32.6033 33.3133 32.4911 33.3133 32.3416V32.192C33.2746 32.2668 33.2358 32.379 33.1971 32.4537C33.1584 32.5285 33.1584 32.6407 33.1584 32.7528V32.8276C33.1196 32.865 33.0809 32.9772 33.0422 33.1267C33.0034 33.2763 32.9647 33.4258 32.9259 33.6128C32.8872 33.7997 32.8485 33.9493 32.8485 34.1362C32.8097 34.2858 32.8097 34.4354 32.8097 34.5101C32.8097 34.5849 32.8097 34.6597 32.8485 34.6971C32.8485 34.6597 32.8485 34.6597 32.8872 34.6597C32.9259 34.6597 32.9259 34.6223 32.9259 34.5849V34.5101C32.9259 34.4727 32.9647 34.4727 33.0034 34.4354V34.5101C33.0034 34.5475 33.0034 34.5849 33.0034 34.6223C33.0034 34.6597 33.0034 34.6597 33.0034 34.6971H33.0809C33.1584 34.6597 33.1971 34.6223 33.2358 34.5101L33.2746 34.6223C33.3133 34.6223 33.3133 34.5849 33.3133 34.5475C33.3133 34.5101 33.3133 34.4354 33.2746 34.398C33.2358 34.3232 33.2358 34.2858 33.2358 34.2484H33.2746C33.2358 34.211 33.2358 34.1736 33.2358 34.1362C33.2358 34.0615 33.2358 33.9867 33.2746 33.9493C33.3133 33.8745 33.3133 33.7997 33.3133 33.7623C33.3133 33.725 33.3133 33.6876 33.3133 33.6876C33.3133 33.6876 33.3133 33.6502 33.3133 33.6128C33.2746 33.725 33.2358 33.8371 33.2358 33.9119C33.2358 33.9867 33.1971 34.0615 33.1584 34.0988C33.1196 34.0988 33.1196 34.0988 33.1196 34.0615V33.9119C33.1584 33.8745 33.1971 33.7623 33.1584 33.6502C33.1584 33.5006 33.1971 33.4258 33.2746 33.3885V33.538C33.352 33.5006 33.3908 33.4258 33.3908 33.3511C33.3908 33.2763 33.3908 33.2015 33.4295 33.1641L33.507 33.1267C33.4683 33.0893 33.4683 33.0893 33.4683 33.052V33.0146C33.507 32.9772 33.5457 32.9024 33.5457 32.8276C33.5457 32.7528 33.5845 32.6781 33.6232 32.6033C33.5845 32.5659 33.5845 32.5659 33.5845 32.5285V32.4537H33.6232ZM33.1584 35.071C33.0809 35.1084 33.0422 35.1457 33.0422 35.1831C33.0422 35.2205 33.0422 35.2205 33.0809 35.2205H33.1196C33.0809 35.2579 33.0809 35.3327 33.0809 35.4075C33.0809 35.4822 33.0422 35.557 32.9647 35.6318V35.5944L32.9259 35.5196C32.8485 35.7066 32.8097 35.9309 32.8097 36.1926V36.3422C32.8485 36.3048 32.8872 36.1926 32.8872 36.0805C32.8872 35.9309 32.9259 35.8561 33.0034 35.8188C32.9647 35.7814 32.9647 35.7814 32.9647 35.744C32.9647 35.7066 32.9647 35.7066 32.9647 35.7066V35.6692C33.0422 35.6318 33.0809 35.557 33.1196 35.4822C33.0809 35.557 33.0809 35.6692 33.0809 35.8188C33.0809 35.8561 33.0809 35.8935 33.1196 35.9309C33.1971 35.8561 33.2746 35.744 33.2746 35.5196V35.3701C33.3133 35.3327 33.352 35.2953 33.352 35.2579V35.1831C33.352 35.1831 33.3133 35.1457 33.3133 35.1084C33.3133 35.071 33.3133 35.0336 33.2746 34.9962L33.1584 35.3327C33.1584 35.2953 33.1196 35.2579 33.0809 35.1831V35.1457C33.0809 35.1084 33.0809 35.1084 33.0809 35.1084C33.1584 35.1457 33.1584 35.1084 33.1584 35.071ZM33.1971 38.0995C33.2358 37.9873 33.2358 37.8752 33.2746 37.763C33.3133 37.6508 33.3133 37.5386 33.3133 37.4265C33.3133 37.2769 33.2358 37.1648 33.1196 37.09L33.0809 37.1274C33.0422 37.1274 33.0422 37.1274 33.0809 37.1274C33.0422 37.1274 33.0034 37.1648 33.0034 37.2395C33.0034 37.3143 33.0034 37.3891 33.0034 37.4639C33.0034 37.5386 33.0422 37.6882 33.0809 37.9125C33.0034 38.1369 32.9259 38.3238 32.9259 38.4734C32.9259 38.5108 32.9259 38.5482 32.9259 38.5855C32.9259 38.6229 32.9259 38.6229 32.9259 38.6977C32.9647 38.5855 33.0034 38.5108 33.0422 38.4734C33.0809 38.436 33.0809 38.3612 33.0809 38.2864C33.0809 38.249 33.0809 38.249 33.0809 38.249C33.0809 38.249 33.0809 38.249 33.0809 38.2117C33.1196 38.2117 33.1196 38.2117 33.1196 38.2117C33.1196 38.2117 33.1196 38.2117 33.1584 38.2117C33.1584 38.1369 33.1584 38.0995 33.1971 38.0995ZM33.2358 37.8378C33.1971 37.8751 33.1584 37.9125 33.1196 37.9125C33.0809 37.9125 33.0422 37.8752 33.0422 37.763C33.0422 37.6134 33.0809 37.5013 33.1584 37.4265C33.1584 37.5013 33.1584 37.5386 33.1584 37.6134C33.1971 37.6508 33.1971 37.7256 33.2358 37.8378ZM33.1971 38.3612C33.2358 38.3612 33.2746 38.3238 33.2746 38.2864C33.2746 38.249 33.2746 38.249 33.2746 38.249C33.2746 38.249 33.2746 38.2116 33.2746 38.1743L33.1584 38.2117L33.1971 38.3612ZM33.1584 40.2307C33.1971 40.1933 33.2358 40.1185 33.2358 40.0811C33.2358 40.0063 33.2358 39.9689 33.2358 39.9316L33.1196 39.9689C33.1196 40.0063 33.1196 40.0063 33.1196 40.0437C33.1196 40.0811 33.1196 40.1185 33.1196 40.1559C33.1196 40.1559 33.1196 40.1933 33.1584 40.2307ZM33.1584 35.5196C33.1584 35.4449 33.1584 35.4075 33.1971 35.3327V35.3701C33.1971 35.4075 33.1971 35.4075 33.1971 35.4075C33.1584 35.4449 33.1584 35.4449 33.1584 35.5196ZM33.3133 34.9214C33.352 34.8466 33.352 34.7719 33.3908 34.7345C33.4295 34.6597 33.4295 34.5849 33.4295 34.5475L33.3133 34.6223C33.3133 34.6971 33.3133 34.7345 33.3133 34.7719C33.3133 34.8092 33.3133 34.8466 33.3133 34.884V34.9214ZM33.352 32.0798C33.4295 31.9677 33.4683 31.8555 33.4683 31.7807C33.4683 31.7059 33.4683 31.6312 33.507 31.519C33.4683 31.5938 33.4295 31.6686 33.3908 31.7059C33.352 31.7807 33.352 31.8555 33.352 31.9677V32.0798ZM33.4295 35.7066C33.4295 35.6692 33.4295 35.6318 33.4683 35.5944C33.507 35.557 33.507 35.5196 33.507 35.4822C33.507 35.4449 33.4683 35.4075 33.4295 35.3327V35.7066V35.7066ZM33.5845 31.2573C33.5845 31.1077 33.5845 30.9956 33.6232 30.846C33.6619 30.6964 33.6619 30.5843 33.6619 30.4347C33.6232 30.4721 33.6232 30.5469 33.5845 30.6217C33.5457 30.6964 33.5457 30.7712 33.5457 30.8086C33.5457 30.8834 33.5457 30.9208 33.5845 30.9582C33.5457 30.9582 33.507 30.9956 33.507 31.1077C33.507 31.1451 33.507 31.2199 33.5845 31.2573ZM33.8169 31.3694C33.8556 30.9956 33.9331 30.6591 34.0493 30.2852C33.8944 30.3599 33.8169 30.4721 33.7781 30.6591C33.7394 30.846 33.7007 31.0329 33.7007 31.1825V31.2573L33.6232 31.2947C33.6619 31.3321 33.6619 31.3694 33.6619 31.4068C33.6232 31.4442 33.6619 31.4442 33.7007 31.4442C33.7394 31.4442 33.7781 31.4442 33.7394 31.4068C33.7394 31.3694 33.7781 31.3694 33.8169 31.3694ZM33.9331 29.4626C33.9331 29.4252 33.9331 29.3878 33.9331 29.3878C33.9331 29.3878 33.9331 29.3504 33.9331 29.313C33.8944 29.313 33.8556 29.3504 33.8169 29.3878C33.7781 29.4252 33.7394 29.4626 33.7394 29.5374L33.9331 29.4626ZM34.1268 28.5653C34.1655 28.4905 34.243 28.4157 34.2817 28.3035C34.3205 28.1914 34.3592 28.0792 34.3592 27.967V27.8923C34.2817 27.8549 34.2042 27.9296 34.1655 28.1166C34.1655 28.3409 34.1268 28.4905 34.1268 28.5653Z" fill="black"/>
<path d="M54.1922 4.78575C53.4175 4.67358 52.6815 4.78575 51.9068 5.08486C51.1708 5.38398 50.5123 5.83265 49.9312 6.35609C49.3502 6.87954 48.8853 7.47777 48.5367 8.15077C48.1881 8.82377 48.0331 9.45939 48.0719 10.0576C48.1106 10.9176 48.343 11.8523 48.7304 12.8244C49.1178 13.7965 49.5051 14.7686 49.9312 15.7781C50.3573 16.7877 50.706 17.7972 51.0158 18.8067C51.3257 19.8162 51.442 20.7883 51.3645 21.723C51.3257 22.4334 51.1321 23.1438 50.7834 23.7794C50.4348 24.4524 49.97 25.0133 49.4277 25.5367C48.8853 26.0602 48.2656 26.434 47.607 26.7332C46.9485 27.0323 46.29 27.1818 45.5928 27.1818C45.5153 27.1818 45.3603 27.1818 45.1279 27.1444C44.9342 27.107 44.7018 27.0697 44.4307 27.0323C44.1982 26.9949 43.9658 26.9201 43.7334 26.8453C43.501 26.7705 43.3073 26.6584 43.1911 26.5462C43.0361 26.4714 42.8425 26.2845 42.5713 26.0228C42.3389 25.761 42.1065 25.4993 41.8741 25.2002C41.6416 24.9011 41.448 24.602 41.293 24.3029C41.1381 24.0038 41.0606 23.742 41.0606 23.5925C41.0993 23.5177 41.1381 23.4803 41.1381 23.4429C41.1381 23.4055 41.1768 23.4055 41.2155 23.4055C41.3317 23.4429 41.4092 23.5177 41.448 23.5925C41.4867 23.6672 41.5254 23.7046 41.6029 23.7046C41.6416 23.7046 41.6804 23.7046 41.7578 23.6672C41.9128 23.7794 42.0677 23.8916 42.1839 23.9664C42.3002 24.0411 42.4551 24.1533 42.61 24.2281C42.765 24.3029 42.9587 24.3776 43.1524 24.415C43.346 24.4524 43.6172 24.4898 43.9658 24.4898C44.3919 24.4898 44.7793 24.415 45.0892 24.2281C45.4378 24.0411 45.709 23.8168 45.9026 23.5177C46.0963 23.2186 46.2513 22.8447 46.29 22.4708C46.3287 22.0595 46.29 21.6482 46.1351 21.1996C45.9414 20.564 45.6315 19.8909 45.2829 19.1806C44.9342 18.4702 44.5469 17.685 44.1982 16.8998C43.8496 16.1146 43.501 15.2921 43.2298 14.4695C42.9199 13.647 42.765 12.8244 42.6875 12.0018C42.5713 10.5811 42.765 9.27244 43.3073 8.07599C43.8496 6.87954 44.5856 5.79526 45.5928 4.89792C46.5612 4.00058 47.7233 3.29019 49.0016 2.76674C50.3186 2.24329 51.6356 1.98157 53.0301 1.98157C54.231 1.98157 55.0444 2.57979 55.5867 3.77624C55.703 4.03797 55.7417 4.2623 55.703 4.48664C55.6642 4.67358 55.548 4.86053 55.4318 4.9727C55.2769 5.08486 55.1219 5.12225 54.8895 5.12225C54.6571 5.12225 54.4247 4.9727 54.1922 4.78575Z" fill="black"/>
<path d="M56.7101 24.6768C56.6714 24.7142 56.6714 24.7142 56.6326 24.7516C56.5939 24.789 56.5939 24.8264 56.5939 24.9011C56.5939 25.0133 56.5939 25.0881 56.5939 25.1629C56.5939 25.2376 56.6326 25.3124 56.6326 25.4246C56.5164 25.3498 56.4389 25.275 56.4389 25.2002C56.4389 25.1255 56.3615 25.0881 56.284 25.0881L56.3615 25.3124C56.3615 25.3498 56.3615 25.3498 56.3227 25.3124C56.284 25.275 56.2453 25.275 56.2453 25.2002C56.2453 25.2376 56.2453 25.275 56.2453 25.3124C56.2453 25.3498 56.2453 25.3872 56.2453 25.4246C56.2065 25.4246 56.1678 25.3872 56.1291 25.3124C56.0903 25.2376 56.0516 25.1629 56.0128 25.0881C55.9741 25.0133 55.9354 24.9385 55.8966 24.8637C55.8579 24.789 55.8192 24.7516 55.8192 24.7142C55.8192 24.8637 55.8192 25.0133 55.8192 25.1255C55.8192 25.2376 55.8579 25.3498 55.8966 25.4994C55.8579 25.4994 55.8192 25.462 55.7804 25.3498C55.7417 25.2376 55.703 25.1255 55.703 25.0133C55.6642 24.9011 55.6642 24.789 55.6642 24.6768C55.6642 24.5646 55.6255 24.4899 55.6255 24.4899C55.5867 24.4525 55.5867 24.4899 55.5867 24.5646C55.5867 24.6394 55.548 24.7142 55.548 24.8264C55.548 24.9011 55.548 25.0507 55.548 25.2002C55.5093 25.2002 55.4705 25.1629 55.4318 25.0507C55.3931 24.9385 55.3931 24.8264 55.3543 24.7142C55.3156 24.5646 55.3156 24.4151 55.2769 24.1907C55.1994 24.2655 55.1606 24.4525 55.1606 24.7142C55.0444 24.6768 54.967 24.5646 54.967 24.3777C54.967 24.1907 54.9282 24.116 54.8508 24.116C54.812 24.116 54.7733 24.2281 54.7733 24.4151C54.7733 24.602 54.7733 24.7142 54.7345 24.7142C54.6958 24.7142 54.6571 24.5646 54.5796 24.3029C54.5409 24.0412 54.5021 23.7047 54.4634 23.2934C54.4247 22.9195 54.3859 22.5456 54.3859 22.1717C54.3859 21.7978 54.3859 21.4987 54.3859 21.3118C54.3859 21.1996 54.3859 21.0874 54.3859 20.9379C54.3859 20.7883 54.3859 20.6762 54.3859 20.564C54.4634 19.4049 54.5796 18.3207 54.6183 17.3111C54.6958 16.2643 54.7733 15.2547 54.8508 14.2452C54.9282 13.2357 55.0444 12.2262 55.1219 11.2167C55.1994 10.2072 55.3156 9.12294 55.4705 8.03865H55.2381C55.0057 8.03865 54.7345 8.03865 54.4634 8.00126C54.1922 7.96387 53.9211 7.8891 53.6887 7.81432C53.4562 7.73954 53.2626 7.62737 53.1076 7.47782C52.9527 7.36565 52.8752 7.1787 52.8752 6.99176C52.8752 6.91698 52.9914 6.87959 53.2238 6.8422C53.4562 6.80481 53.7274 6.76742 54.0373 6.76742C54.3472 6.73003 54.6571 6.73003 54.967 6.73003C55.2769 6.73003 55.5093 6.73003 55.703 6.73003C55.7804 6.5057 55.8192 6.20659 55.8966 5.79531C55.9354 5.38403 56.0128 4.97275 56.0903 4.52408C56.1678 4.07541 56.2453 3.62674 56.3227 3.17807C56.4002 2.7294 56.4777 2.35551 56.5939 2.0564C56.7101 1.68251 56.9038 1.45817 57.2137 1.346C57.5236 1.23384 57.8335 1.15906 58.1434 1.15906C58.2983 1.15906 58.492 1.15906 58.7244 1.19645C58.9568 1.23384 59.1892 1.27122 59.4216 1.30861C59.6541 1.38339 59.8477 1.45817 60.0414 1.57034C60.2351 1.6825 60.3126 1.83206 60.3126 1.98162C60.3126 2.09379 60.2739 2.20595 60.2351 2.28073C60.2739 2.43029 60.3126 2.61723 60.3126 2.76679C60.3126 2.95373 60.3126 3.14068 60.3126 3.32763C60.3126 4.07541 60.2738 4.74841 60.1964 5.27186C60.1189 5.79531 60.0414 6.31875 60.0027 6.80481C60.545 6.80481 61.1648 6.8422 61.7458 6.91698C62.3656 6.99176 62.8692 7.1787 63.2178 7.44043C63.1403 7.44043 63.0241 7.5152 62.9079 7.58998C62.7917 7.70215 62.6755 7.77693 62.5593 7.77693C62.598 7.77693 62.598 7.77693 62.6368 7.81432C62.6755 7.85171 62.6755 7.85171 62.6755 7.85171C62.6755 7.85171 62.6755 7.8891 62.7142 7.8891C62.5593 7.8891 62.3656 7.8891 62.0945 7.8891C61.8233 7.8891 61.5134 7.92648 61.2423 7.92648C60.9324 7.96387 60.6612 7.96387 60.3901 7.96387C60.1189 7.96387 59.9252 8.00126 59.8477 8.00126C59.6541 9.60899 59.4991 11.1046 59.3054 12.5253C59.1118 13.9461 58.9568 15.3295 58.7631 16.6755C58.5694 18.0215 58.3758 19.3675 58.1821 20.7509C57.9884 22.1343 57.7947 23.5551 57.5623 25.0507C57.5236 25.1255 57.5236 25.1629 57.4848 25.2376C57.4461 25.3124 57.4461 25.3498 57.4461 25.3872C57.4074 25.4246 57.4074 25.3498 57.3686 25.2376C57.3299 25.1255 57.2911 24.9759 57.2137 24.8264C57.2137 24.9385 57.2137 25.0507 57.2137 25.1629C57.2137 25.275 57.2137 25.3872 57.2137 25.462C57.1362 25.4246 57.02 25.3498 56.9038 25.2002C56.7876 25.0507 56.7101 24.8637 56.7101 24.6768Z" fill="black"/>
<path d="M71.5074 13.9836L71.0813 14.1331L71.275 14.2079L71.2363 14.2827C70.8489 14.2453 70.5003 14.3201 70.1516 14.4696C69.803 14.6192 69.4931 14.7314 69.2607 14.8061C69.2994 14.6566 69.2994 14.6192 69.2607 14.7687C69.1832 14.8809 69.1058 14.9557 68.9508 14.9557C68.9508 14.9931 68.8733 15.0679 68.7184 15.18C68.5634 15.2922 68.486 15.2922 68.5247 15.18C68.4085 15.2922 68.2923 15.367 68.1373 15.4417C67.9824 15.5165 67.9049 15.5539 67.8275 15.5913C67.7887 15.6287 67.75 15.6661 67.75 15.7035C67.75 15.7409 67.7112 15.7409 67.6338 15.7409C67.6725 15.7409 67.6725 15.7409 67.6338 15.7409C67.6338 15.7409 67.595 15.7409 67.5563 15.7409C67.2851 15.9278 66.9753 16.04 66.6654 16.0774C66.3555 16.1521 66.0456 16.1521 65.8132 16.1521V16.0774C65.8132 16.04 65.8132 16.04 65.7744 16.04L65.6582 16.0774C65.7744 16.8999 65.8519 17.6477 65.8906 18.2833C65.9294 18.9189 65.8519 19.6293 65.6195 20.4145C65.6195 20.4519 65.6195 20.5267 65.5807 20.6388C65.542 20.751 65.542 20.9006 65.5033 21.0501C65.4645 21.1997 65.4258 21.3492 65.3871 21.4988C65.3483 21.6483 65.2709 21.7605 65.1934 21.8353C65.0772 22.0222 64.9997 22.2466 64.961 22.3961C64.9222 22.5831 64.8448 22.7326 64.6898 22.9196C64.5736 23.1065 64.3799 23.2561 64.1475 23.443C63.9151 23.63 63.5277 23.8543 63.0241 24.0786C62.9079 24.116 62.753 24.1534 62.598 24.1534C62.4431 24.1534 62.2494 24.1534 62.0557 24.116C61.8233 24.0786 61.5522 23.9665 61.2035 23.7795C60.8549 23.5926 60.6225 23.3309 60.5063 22.9943C60.1964 22.284 60.0027 21.5362 60.0027 20.751C60.0027 19.9284 60.0414 19.218 60.1964 18.545C60.3513 17.872 60.5837 17.1243 60.8936 16.3391C61.2423 15.5539 61.6296 14.8061 62.1332 14.1331C62.6368 13.4601 63.2178 12.8993 63.8763 12.488C64.5349 12.0767 65.2709 11.8898 66.0843 11.9646C66.1618 11.9646 66.3555 11.9646 66.6266 12.0019C66.8978 12.0393 67.1689 12.0767 67.4014 12.1515C67.6338 12.2263 67.8275 12.3385 67.9824 12.4506C68.1373 12.5628 68.0986 12.675 67.9437 12.8245C67.75 12.8619 67.595 12.8619 67.5176 12.8245C67.4401 12.7871 67.2851 12.7871 67.1689 12.7871C66.0843 13.2732 65.1934 14.0957 64.4961 15.2922C63.7601 16.4886 63.2566 17.8347 62.9079 19.3302C62.8305 19.8163 62.7142 20.3023 62.6368 20.8632C62.5593 21.424 62.598 21.9848 62.753 22.5457C64.1862 20.5641 64.9222 18.4329 64.9997 16.1148V15.853C64.961 15.8156 64.9997 15.7782 65.0384 15.7035C65.0772 15.6661 65.1159 15.6287 65.1159 15.5539C65.0772 15.5165 65.0384 15.4791 64.9997 15.4417C64.961 15.4044 64.9222 15.367 64.961 15.3296C64.9222 15.2174 64.961 15.1426 65.1159 15.1426C65.2709 15.1052 65.3871 15.1426 65.4645 15.2548C65.8519 15.18 66.2393 15.0679 66.6266 14.9557C67.014 14.8061 67.3626 14.6566 67.7887 14.4696C68.1761 14.3201 68.5247 14.1705 68.7959 14.0957C69.067 13.9836 69.3382 13.9088 69.6093 13.8714C69.8805 13.834 70.1516 13.7966 70.4615 13.7592C70.7327 13.7218 71.12 13.6845 71.5461 13.6471V13.6845L70.7714 13.8714L71.5074 13.9836ZM69.6093 14.2453C69.5319 14.2453 69.4931 14.2827 69.4156 14.3201C69.3769 14.3575 69.3769 14.3575 69.3382 14.3575C69.3769 14.3201 69.4156 14.3201 69.4931 14.3575C69.6093 14.3575 69.6481 14.3201 69.6093 14.2453ZM69.6481 14.4322C69.6093 14.4696 69.6093 14.4696 69.5706 14.4696C69.5319 14.507 69.4931 14.5444 69.5319 14.5444C69.6481 14.507 69.6868 14.4696 69.6481 14.4322ZM69.7643 14.4322C69.8417 14.3949 69.8417 14.3575 69.8417 14.2827L69.803 14.3201C69.7643 14.3949 69.7255 14.4322 69.7643 14.4322ZM69.9192 14.3949C70.3066 14.2827 70.6552 14.2453 70.9264 14.2453C70.7714 14.2079 70.6165 14.2079 70.4228 14.2453C70.2291 14.2827 70.0354 14.3201 69.8805 14.3201L69.9192 14.3949ZM70.5003 13.9836C70.539 13.9836 70.539 13.9836 70.5777 13.9462C70.6165 13.9088 70.5777 13.9088 70.5003 13.8714C70.4615 13.9088 70.4228 13.9462 70.3841 13.9088C70.3453 13.9088 70.3066 13.9088 70.2678 13.9088L70.2291 13.9836H70.1904C70.2678 14.0584 70.3841 14.0584 70.5003 13.9836Z" fill="black"/>
<path d="M77.8602 11.4785C77.744 11.5532 77.6278 11.628 77.5116 11.7028C77.3954 11.7776 77.2791 11.8524 77.2017 11.9645C77.0467 12.0019 76.9693 12.0767 76.9305 12.1515C76.8918 12.2262 76.7756 12.3384 76.6206 12.3758C76.6594 12.4132 76.6594 12.4506 76.6206 12.488C76.5432 12.5254 76.5044 12.6001 76.4269 12.6375C76.3495 12.7123 76.272 12.7497 76.1945 12.8245C76.1171 12.8992 76.0783 12.9366 76.0396 13.0114C75.9621 13.0488 75.8846 13.0862 75.7684 13.161C75.6522 13.1984 75.5747 13.2731 75.536 13.3853C75.4585 13.4227 75.4198 13.4975 75.3811 13.5723C75.3423 13.647 75.3036 13.7218 75.2649 13.7592C73.4442 15.5913 72.3596 17.6477 72.011 20.0032C71.8173 21.3866 71.6236 22.6578 71.4687 23.8916C71.4299 23.929 71.3912 23.8916 71.3912 23.7795C71.3912 23.6673 71.3525 23.6299 71.3137 23.6673C71.275 23.7421 71.2363 23.8169 71.1588 23.8916C71.1201 23.9664 71.0813 24.0038 71.0038 24.0412C71.0038 24.0786 70.9651 24.0786 70.9264 24.0412C70.8876 24.0038 70.8489 24.0038 70.7714 24.0412C70.7327 24.0786 70.7327 24.0786 70.7327 24.116C70.694 24.1534 70.694 24.1534 70.6552 24.1534C70.6552 24.0786 70.6552 24.0412 70.6165 24.0786C70.5777 24.0786 70.5777 24.0786 70.5777 24.0412L70.5003 24.0786V24.116C70.4615 24.0786 70.4615 24.0412 70.5003 24.0412C70.5003 24.0412 70.5003 24.0412 70.5003 24.0038C70.4615 24.0038 70.4615 24.0038 70.4615 24.0038C70.4615 24.0038 70.4615 24.0038 70.4228 24.0038H70.3841V23.8169C70.3453 23.8543 70.3066 23.929 70.3066 24.0038C70.3066 24.0786 70.2679 24.116 70.2291 24.116L70.1516 24.1908V24.116C70.1904 24.116 70.1129 24.1908 69.958 24.3029V24.1534C69.8805 24.1908 69.8418 24.2281 69.8418 24.3029C69.8418 24.3403 69.8418 24.3777 69.803 24.3777C69.7643 24.4151 69.7255 24.4151 69.6868 24.4525C69.6481 24.4899 69.6093 24.4899 69.5706 24.5273H69.4544C69.4157 24.5646 69.3769 24.602 69.3382 24.6394C69.2994 24.6768 69.2994 24.7142 69.2607 24.7516C69.1832 24.789 69.1058 24.789 69.0283 24.8264C68.9508 24.8638 68.8733 24.9011 68.8346 24.9385C68.7959 24.8638 68.6797 24.8264 68.5634 24.8264L68.4085 24.6768C68.3698 24.602 68.331 24.5273 68.2923 24.5273C68.2536 24.5273 68.2536 24.4899 68.2148 24.4151C68.2148 24.3777 68.1374 24.3403 68.0211 24.2281L67.9437 24.0412C67.9824 23.0317 68.0599 21.9474 68.0986 20.8257C68.1761 19.6667 68.2923 18.545 68.4085 17.4233C68.5635 16.3017 68.7184 15.2174 68.9508 14.2079C69.1832 13.1984 69.4931 12.3384 69.8418 11.628C69.9192 11.4785 70.0742 11.2541 70.2678 10.955C70.5003 10.6559 70.694 10.5063 70.8489 10.5063C70.9651 10.4316 71.1201 10.3194 71.275 10.2072C71.4299 10.0951 71.6236 10.0577 71.7398 10.0577C72.0497 9.9829 72.3209 9.9829 72.5146 10.0203C72.7082 10.0577 72.8632 10.1325 72.9794 10.2446C73.0956 10.3568 73.1731 10.5063 73.1731 10.6559C73.2118 10.8055 73.2118 10.955 73.2118 11.142C73.2118 11.2541 73.2118 11.4037 73.1731 11.628C73.1343 11.815 73.0956 12.0393 73.0569 12.2636C73.0181 12.488 72.9794 12.7123 72.9019 12.8992C72.8632 13.0862 72.8245 13.2357 72.747 13.3105C72.7082 13.5723 72.6695 13.7592 72.6308 13.9461C72.592 14.0957 72.5533 14.32 72.5533 14.5444C72.7857 14.2826 73.0956 13.9461 73.483 13.5349C73.8703 13.1236 74.2964 12.7497 74.7613 12.4132C75.2261 12.0767 75.691 11.7776 76.1945 11.5906C76.9693 11.3289 77.4341 11.3289 77.8602 11.4785Z" fill="black"/>
<path d="M88.2028 14.4696C88.2028 14.507 88.2028 14.5818 88.2415 14.6191C88.2803 14.6939 88.319 14.7313 88.3965 14.7313C88.319 14.8061 88.2803 14.8435 88.2803 14.8809C88.2803 14.9183 88.2803 14.9183 88.319 14.9557C88.3577 14.993 88.3577 15.0304 88.3577 15.0678C88.3577 15.1052 88.3577 15.1426 88.319 15.18C88.319 15.2174 88.319 15.2174 88.319 15.18C88.319 15.2548 88.319 15.3295 88.2803 15.4417C88.2415 15.5539 88.2028 15.666 88.0866 15.7408C88.0866 15.7034 88.0866 15.7034 88.0866 15.6287C88.0866 15.5913 88.1253 15.5539 88.1641 15.4791H88.1253C88.0866 15.4791 88.0479 15.5539 87.9704 15.666C87.9316 15.8156 87.738 16.1895 87.4281 16.7877C87.5443 16.7129 87.6605 16.6008 87.738 16.4512C87.8154 16.2643 87.9316 16.1147 88.0091 16.0025V16.0773C88.0091 16.1147 88.0091 16.1521 87.9704 16.1895C87.9316 16.2269 87.9316 16.2643 87.9316 16.3017C88.0479 16.1895 88.1253 16.0773 88.1641 15.9278C88.2028 15.7782 88.2803 15.5913 88.3965 15.3295C88.4352 15.3669 88.4352 15.3669 88.4352 15.4043V15.4417V15.5913C88.474 15.5913 88.474 15.6287 88.474 15.666C88.474 15.7408 88.4352 15.7782 88.3965 15.853C88.319 15.8904 88.319 15.9278 88.319 16.0025C88.319 16.0399 88.3577 16.0773 88.3965 16.1147C88.319 16.3764 88.2028 16.6382 88.0091 16.9747C87.8154 17.3112 87.583 17.6477 87.3119 17.9842C87.0407 18.3207 86.8083 18.6572 86.5371 18.9937C86.266 19.3302 86.0336 19.6293 85.8399 19.8162C85.8011 19.8536 85.8011 19.8536 85.7624 19.8536C85.7237 19.8536 85.7624 19.7788 85.8399 19.6293C85.9174 19.4797 85.9948 19.3676 86.0723 19.3302V19.405C86.3047 19.1058 86.5759 18.7693 86.8858 18.3207C87.1957 17.9094 87.4668 17.4981 87.6992 17.1616H87.6605V17.0868L87.8154 16.9373C87.8542 16.8999 87.8929 16.8625 87.9316 16.7877C87.9316 16.8251 87.9316 16.8251 87.8929 16.8625C87.9704 16.7877 88.0091 16.7129 87.9704 16.6755C87.9704 16.6008 87.9704 16.5634 88.0091 16.526V16.4138C87.9704 16.4138 87.8929 16.4886 87.8154 16.6382C87.738 16.7877 87.583 17.0121 87.3506 17.3112H87.4281C87.3893 17.3859 87.3119 17.4981 87.1957 17.6103C87.0794 17.7224 86.9245 17.9468 86.7308 18.2833C86.6921 18.2833 86.6921 18.2833 86.6921 18.2459C86.6533 18.2459 86.6533 18.2085 86.6533 18.1711C86.6921 18.1711 86.6533 18.2459 86.5371 18.3581C86.4597 18.5076 86.3822 18.5824 86.3435 18.6572L86.3047 18.5824C86.266 18.6198 86.2272 18.6946 86.1885 18.8441C86.111 18.9563 86.0723 19.0685 86.0336 19.1058H85.9948C85.9174 19.2554 85.8399 19.3302 85.7624 19.3676L85.8011 19.4423C85.8011 19.5171 85.7624 19.5919 85.7237 19.6667C85.6462 19.7415 85.6075 19.8536 85.53 19.9658C85.4525 20.078 85.375 20.1901 85.2976 20.3023C84.9877 20.6762 84.6003 21.0501 84.1742 21.424C83.7481 21.8352 83.322 22.1717 82.8184 22.4709C82.3536 22.77 81.85 23.0317 81.3852 23.256C80.8816 23.4804 80.4555 23.5925 80.0294 23.5925H79.9907C79.9519 23.5925 79.9519 23.5925 79.9519 23.5551C79.9907 23.5551 79.9907 23.5551 79.9907 23.5178V23.4804C79.8357 23.4804 79.7195 23.4804 79.6033 23.5178C79.4871 23.5551 79.3709 23.5551 79.2547 23.5551C79.216 23.5551 79.1385 23.5551 79.061 23.5178C78.9835 23.4804 78.9061 23.4804 78.8673 23.4804C78.8286 23.4804 78.8286 23.4804 78.8673 23.5178C78.8673 23.5551 78.8673 23.5551 78.8286 23.5551C78.7899 23.5178 78.7511 23.4804 78.6349 23.4804H78.48C78.3638 23.443 78.2475 23.4056 78.1313 23.3682C78.0151 23.3308 77.8989 23.3308 77.7827 23.256C77.9377 23.4056 78.0926 23.4804 78.325 23.5178C78.5574 23.5551 78.7511 23.5551 78.9448 23.5551H79.3322C79.2934 23.5925 79.2547 23.6299 79.216 23.5925C79.1772 23.5551 79.1385 23.5925 79.0997 23.6299C79.216 23.6299 79.2934 23.6299 79.2934 23.6299C79.2934 23.6299 79.2934 23.6299 79.2934 23.6673C79.0997 23.6673 78.8673 23.6673 78.5962 23.6299C78.325 23.5925 78.0926 23.5551 77.8602 23.4804C77.8989 23.5178 77.9764 23.5551 78.0151 23.5551C78.0539 23.5551 78.1313 23.5925 78.1313 23.6299C78.0151 23.6299 77.9377 23.6299 77.8602 23.5925C77.7827 23.5551 77.7052 23.5178 77.6665 23.4804H77.6278L77.6665 23.5551H77.6278C77.589 23.5551 77.589 23.5551 77.589 23.5178L77.5503 23.4804C77.3953 23.5178 77.2791 23.4804 77.2017 23.4056C77.0855 23.3308 76.9692 23.2934 76.853 23.256C76.2332 22.7326 75.8072 22.1344 75.536 21.4614C75.2648 20.7884 75.1099 20.1153 75.1099 19.405C75.1099 18.6946 75.2648 17.9094 75.6135 17.0868C75.9621 16.2643 76.3882 15.5165 76.9692 14.8061C77.5503 14.0957 78.2088 13.4975 78.9835 13.0488C79.7583 12.5627 80.5717 12.3384 81.4239 12.3384C81.5789 12.3384 81.6951 12.3758 81.8113 12.4132C81.8888 12.4506 82.005 12.5254 82.0437 12.5627C82.1212 12.6375 82.1987 12.6749 82.2761 12.7497C82.3536 12.8245 82.4698 12.8992 82.586 12.9366C82.5473 12.9366 82.5473 12.9366 82.5473 12.8993V12.8245L82.586 12.8993H82.6248C82.6635 12.8993 82.6635 12.8993 82.6635 12.8619C82.6635 12.8245 82.6635 12.8245 82.6635 12.8245V12.7871L82.7797 12.9366C82.8184 12.9366 82.8184 12.9366 82.8184 12.8993V12.8245C82.8572 12.9366 82.8959 13.0488 82.8959 13.161C82.8959 13.2731 82.9346 13.3853 82.9734 13.4975C83.0121 13.647 83.0896 13.7966 83.2445 13.9835C83.3607 14.1705 83.4382 14.507 83.4382 14.9557C83.4382 15.2174 83.3608 15.5539 83.2833 15.9278C83.1671 16.3017 82.9734 16.6755 82.6635 17.0121C82.3536 17.3486 81.9662 17.6477 81.4627 17.872C80.9204 18.1337 80.2618 18.2459 79.4484 18.2459C79.1772 18.2459 78.9448 18.2459 78.7124 18.2085C78.48 18.1711 78.2863 18.1711 78.0926 18.0963C77.9377 18.5076 77.8989 18.8441 77.8989 19.1806C77.8989 19.8162 78.0926 20.3397 78.5187 20.6762C78.9448 21.0127 79.4871 21.1996 80.1456 21.1996C80.8816 21.1996 81.5401 21.0127 82.1599 20.6762C82.7797 20.3023 83.3995 19.8536 84.0193 19.2554C84.639 18.6572 85.2588 17.9842 85.8786 17.199C86.4984 16.4138 87.1957 15.6287 87.9704 14.7687C88.0091 14.7687 88.0479 14.7313 88.1253 14.6939C88.0866 14.507 88.1641 14.4696 88.2028 14.4696ZM77.0467 23.3682C77.008 23.3308 77.008 23.3308 76.9692 23.3308C76.9305 23.3308 76.9305 23.2934 76.9305 23.256C76.9692 23.2934 77.008 23.2934 77.008 23.3308C77.008 23.2934 77.008 23.3308 77.0467 23.3682ZM79.9132 14.3948C79.6033 14.6939 79.3322 15.0678 79.061 15.4417C78.7899 15.853 78.5962 16.2269 78.48 16.6008C78.6349 16.526 78.8286 16.3764 79.1772 16.1895C79.4871 16.0025 79.8357 15.8156 80.1844 15.5539C80.533 15.2922 80.8429 15.0304 81.1528 14.7313C81.4627 14.4322 81.6563 14.0957 81.7338 13.7592C81.6563 13.7218 81.5401 13.7218 81.3852 13.7218C81.114 13.7218 80.8429 13.7966 80.5717 13.9088C80.3006 14.0957 80.1069 14.2453 79.9132 14.3948ZM80.6879 12.6375C80.3393 12.7123 80.0294 12.8619 79.797 13.1236C80.0294 12.974 80.3006 12.8245 80.5717 12.7497C80.8429 12.6375 81.1528 12.6001 81.4239 12.6001C81.3852 12.5627 81.3465 12.5627 81.269 12.5627C81.2302 12.6001 81.1528 12.6001 81.114 12.6001C81.0753 12.5627 81.0366 12.5627 80.9978 12.5627C80.9591 12.5627 80.8816 12.5627 80.8041 12.6001C80.7654 12.5627 80.6879 12.6001 80.6879 12.6375ZM81.2302 12.6375C81.1528 12.6375 81.0366 12.6375 80.9591 12.6749L80.9204 12.6375V12.6001C80.8816 12.6375 80.7654 12.6749 80.5717 12.7123C80.378 12.7871 80.2618 12.8245 80.1456 12.9366C80.378 12.8992 80.5717 12.8245 80.7267 12.7497C80.7654 12.7497 80.8041 12.7497 80.8429 12.7497C80.8816 12.7497 80.9204 12.7497 80.9591 12.7497C80.9978 12.7497 81.0366 12.7497 81.114 12.7123C81.1528 12.7497 81.1915 12.7123 81.2302 12.6375ZM81.114 12.3758C81.114 12.4132 81.0753 12.4506 80.9591 12.4132C80.8816 12.4132 80.8429 12.4132 80.8429 12.4506L81.4239 12.3384C81.3077 12.301 81.2302 12.301 81.1528 12.301L81.114 12.3758ZM82.8572 13.4975C82.8572 13.6096 82.8959 13.7218 82.9347 13.7966C82.9734 13.8714 83.0121 13.9461 83.0896 14.0583C83.0509 13.9835 83.0121 13.8714 83.0121 13.7966C83.0509 13.834 83.0896 13.9088 83.1283 13.9835C83.1671 14.0583 83.1671 14.1331 83.2445 14.1705C83.2445 14.0957 83.2058 13.9835 83.1283 13.834C83.0121 13.647 82.9346 13.5349 82.8572 13.4975ZM86.8083 17.6103C86.847 17.5355 86.847 17.4607 86.9245 17.3859C86.9632 17.3486 87.002 17.2738 87.0794 17.199C86.9632 17.2364 86.8858 17.3486 86.847 17.4607C86.8083 17.6103 86.7308 17.7224 86.6533 17.8346V17.9094C86.6533 17.872 86.6146 17.9468 86.4984 18.0589C86.4209 18.2085 86.3435 18.2833 86.3047 18.3581C86.3822 18.2459 86.4597 18.0963 86.5371 17.9468C86.6146 17.7972 86.6533 17.6477 86.6921 17.4981C86.6533 17.5729 86.6146 17.6103 86.5759 17.6103V17.4981C86.4984 17.6103 86.4209 17.7598 86.3822 17.9094C86.3435 18.0589 86.2272 18.2459 86.111 18.4328L86.0723 18.3581C86.0336 18.4702 85.9948 18.545 85.9174 18.5824C85.8786 18.6198 85.8399 18.6946 85.8399 18.7693V18.8067L85.9174 18.7319C85.9174 18.6946 85.9174 18.6946 85.9561 18.6946H86.0336C85.9948 18.7319 85.9561 18.732 85.9561 18.7693C85.9561 18.8067 85.9174 18.8441 85.8786 18.8815C85.9561 18.8441 86.0336 18.7693 86.0723 18.6946C86.111 18.6198 86.1498 18.545 86.2272 18.5076C86.266 18.545 86.266 18.545 86.3047 18.545C86.3047 18.5076 86.3435 18.4328 86.3822 18.3954C86.4209 18.3581 86.4597 18.2833 86.4984 18.2085C86.5371 18.1337 86.5759 18.0589 86.6533 17.9842C86.6146 17.9842 86.6533 17.9842 86.6533 17.9842C86.6921 17.9842 86.6921 18.0216 86.6533 18.0589C86.6921 18.0216 86.6921 17.9842 86.7308 17.9468C86.7696 17.9094 86.7696 17.9094 86.8083 17.8346V17.7598C86.8083 17.7224 86.8083 17.6851 86.8083 17.6477C86.8083 17.6103 86.8083 17.6103 86.8083 17.5355V17.6103ZM87.3506 16.6008C87.3506 16.6008 87.3119 16.5634 87.3506 16.6008C87.3119 16.526 87.3893 16.4138 87.5443 16.2269C87.6992 16.0399 87.7767 15.8904 87.8542 15.8156C87.738 15.9278 87.5443 16.1147 87.3119 16.3764C87.0794 16.6382 86.9632 16.8999 86.9632 17.1242V17.199C87.002 17.1616 87.002 17.1242 87.0407 17.0494C87.0794 16.9747 87.1182 16.9373 87.1569 16.9373C87.1957 16.9373 87.1957 16.9747 87.1957 17.0494C87.2344 16.9747 87.2731 16.8999 87.2731 16.8251C87.2731 16.7503 87.3119 16.6756 87.3506 16.6008Z" fill="black"/>
<path d="M89.21 20.0032C89.4811 19.9658 89.7135 20.0032 89.8685 20.1153C90.0234 20.2275 90.1396 20.4144 90.2171 20.6014C90.2946 20.7883 90.3333 21.0127 90.3333 21.2744C90.3333 21.4987 90.2946 21.7231 90.2558 21.9474C90.2171 22.0969 90.1396 22.2465 90.0234 22.4334C89.9072 22.6204 89.791 22.77 89.6748 22.8821C89.5199 22.9569 89.3262 22.9943 89.0938 23.0317C88.8613 23.0691 88.6289 23.0691 88.3965 23.0317C88.1641 22.9943 87.9317 22.9195 87.738 22.8447C87.5443 22.7699 87.3506 22.6204 87.2344 22.4334C87.0407 22.3587 86.8858 22.2091 86.8083 22.0222C86.7308 21.8352 86.7308 21.6483 86.7696 21.4613C86.8083 21.2744 86.8858 21.0501 86.9632 20.8631C87.0794 20.6762 87.1957 20.5266 87.3119 20.377C87.583 20.1901 87.8929 20.1153 88.2028 20.0779C88.5127 20.0405 88.8226 20.0032 89.21 20.0032Z" fill="black"/>
</svg>
